<svg xmlns="http://www.w3.org/2000/svg" xmlns:xlink="http://www.w3.org/1999/xlink" width="98" height="98" viewBox="0 0 98 98"><defs><style>.a{fill:none;stroke:#707070;}.b{clip-path:url(#a);}.c{fill:url(#b);}.d{fill:#fff;}</style><clipPath id="a"><rect class="a" width="98" height="98" transform="translate(63 2522)"/></clipPath><linearGradient id="b" x1="0.5" x2="0.5" y2="1" gradientUnits="objectBoundingBox"><stop offset="0" stop-color="#8c92f9"/><stop offset="1" stop-color="#b6bdfd"/></linearGradient></defs><g class="b" transform="translate(-63 -2522)"><rect class="c" width="96" height="96" rx="16" transform="translate(64 2523)"/><path class="d" d="M-656.185,441.6a1.093,1.093,0,0,1,1.1,1.085v17.9h5.558v-17.9a1.093,1.093,0,0,1,1.1-1.085h8.915a1.091,1.091,0,0,1,1.1,1.085v17.9h5.558v-17.9a1.1,1.1,0,0,1,1.1-1.085h8.915a1.091,1.091,0,0,1,1.1,1.085v17.9h4.181a1.094,1.094,0,0,1,1.1,1.085V463.3a2.731,2.731,0,0,1-2.75,2.71h-49.53a2.731,2.731,0,0,1-2.75-2.71v-1.628a1.1,1.1,0,0,1,1.1-1.085h4.18v-17.9a1.091,1.091,0,0,1,1.1-1.085Zm14.269-25.009.331.229,24.909,19.3a1.816,1.816,0,0,1,.647,1.9,1.843,1.843,0,0,1-1.518,1.339l-.274.022h-52.291a1.85,1.85,0,0,1-1.7-1.09,1.8,1.8,0,0,1,.333-1.971l.218-.2,24.912-19.3a3.9,3.9,0,0,1,4.432-.229Zm0,0" transform="translate(755.969 2129.994)"/></g></svg>