<svg xmlns="http://www.w3.org/2000/svg" xmlns:xlink="http://www.w3.org/1999/xlink" width="98" height="98" viewBox="0 0 98 98"><defs><style>.a{fill:none;stroke:#707070;}.b{clip-path:url(#a);}.c{fill:url(#b);}.d{fill:#fff;}</style><clipPath id="a"><rect class="a" width="98" height="98" transform="translate(238 1592)"/></clipPath><linearGradient id="b" x1="0.5" x2="0.5" y2="1" gradientUnits="objectBoundingBox"><stop offset="0" stop-color="#f7b1a5"/><stop offset="1" stop-color="#fd6edc"/></linearGradient></defs><g class="b" transform="translate(-238 -1592)"><rect class="c" width="96" height="96" rx="16" transform="translate(239 1593)"/><g transform="translate(901.82 1326.89)"><path class="d" d="M-629.585,299.467" transform="translate(23.823 18.585)"/><path class="d" d="M-632.37,300.347" transform="translate(18.81 20.164)"/><path class="d" d="M-588.724,291.567h-17.052v-.586a1.874,1.874,0,0,0-1.876-1.871h-6.916a1.874,1.874,0,0,0-1.876,1.871v3.267a16.749,16.749,0,0,0-9.1,4.663c-6.44,6.143-9.856,16.95-10.136,32.253a10.3,10.3,0,0,1-5.46-1.675,1.142,1.142,0,0,0-1.12-.028,1.126,1.126,0,0,0-.56.977,1.089,1.089,0,0,0,.532.949,12.506,12.506,0,0,0,6.5,1.983,10.841,10.841,0,0,0,1.344-.084,8.145,8.145,0,0,0,2.632-.81,6,6,0,0,1,2.128-.642,6.231,6.231,0,0,1,3.556.586,11.478,11.478,0,0,0,4.368.922,8.638,8.638,0,0,0,3.78-.81,6.786,6.786,0,0,1,3.136-.726,7.593,7.593,0,0,1,3.444.614,11.431,11.431,0,0,0,4.284.782,10.835,10.835,0,0,0,3.864-.782,7.9,7.9,0,0,1,3.5-.586,46.682,46.682,0,0,1,5.628.754c1.288.223,2.352.419,3.108.586a1.137,1.137,0,0,0,1.316-.866,1.12,1.12,0,0,0-.868-1.312c-.756-.168-1.848-.363-3.192-.586a40.115,40.115,0,0,0-5.908-.782,10.03,10.03,0,0,0-4.34.7,7.882,7.882,0,0,1-3.136.642,8.081,8.081,0,0,1-3.472-.642,10.086,10.086,0,0,0-4.312-.754,9.172,9.172,0,0,0-2.94.5c.168-4.189.868-6.562,1.54-7.9a1.9,1.9,0,0,0,1.764,1.2h6.916a1.874,1.874,0,0,0,1.876-1.871v-.586h17.052a1.886,1.886,0,0,0,1.9-1.9V293.438A1.88,1.88,0,0,0-588.724,291.567Zm-39,27.952c-.028.084-1.652,6.06-1.428,10.053a7.384,7.384,0,0,0,.056.81,1.113,1.113,0,0,1-.2.838,1.149,1.149,0,0,1-.756.419h-.14a1.069,1.069,0,0,1-1.092-.949,6.852,6.852,0,0,1-.056-.754c-.336-4.356,1.4-10.723,1.456-11a1.121,1.121,0,0,1,1.372-.754A1.115,1.115,0,0,1-627.728,319.52Zm8.232-15c-.056.028-3.08,1.033-5.656,5.25a1.093,1.093,0,0,1-.952.531,1.062,1.062,0,0,1-.952-.559,1.135,1.135,0,0,1,0-1.117c3.08-5.026,6.776-6.171,6.916-6.227a1.175,1.175,0,0,1,1.092.251,1.124,1.124,0,0,1,.308,1.089A1.069,1.069,0,0,1-619.5,304.524Zm11.116-7.4c0-.028,0-.028.028-.028h6.748c.028,0,.028,0,.028.028v2.15c0,.028,0,.028-.028.028h-6.748c-.028,0-.028,0-.028-.028Zm0,12.37a.027.027,0,0,1,.028-.028h5.824a.027.027,0,0,1,.028.028v2.178c0,.028,0,.028-.028.028h-5.824c-.028,0-.028,0-.028-.028Zm15.232,5.976a.027.027,0,0,1-.028.028h-15.176a.027.027,0,0,1-.028-.028v-2.178a.027.027,0,0,1,.028-.028h15.176a.027.027,0,0,1,.028.028Z" transform="translate(0)"/><path class="d" d="M-636.06,309.826a12.229,12.229,0,0,1-6.053-1.759,1.124,1.124,0,0,1-.593-.952,1.114,1.114,0,0,1,.532-.989,1.109,1.109,0,0,1,1.12-.025l.042.025a9.736,9.736,0,0,0,5.434,1.45,8.018,8.018,0,0,0,2.749-.716,9.789,9.789,0,0,1,3.95-.885,6.544,6.544,0,0,1,3.088.641,7.18,7.18,0,0,0,2.343.613,7.748,7.748,0,0,0,3.891-.576,11.406,11.406,0,0,1,4.468-.832,9.035,9.035,0,0,1,4.375,1.079,5.182,5.182,0,0,0,3.038.674,7.772,7.772,0,0,0,3.491-1.076,6.908,6.908,0,0,1,4.639-.978,9.439,9.439,0,0,1,2.13.587,16.8,16.8,0,0,0,3.015.865,25.256,25.256,0,0,0,3.678.45,1.114,1.114,0,0,1,1.058,1.166,1.132,1.132,0,0,1-1.165,1.062,27.806,27.806,0,0,1-4-.486,19.138,19.138,0,0,1-3.362-.961,7.2,7.2,0,0,0-1.657-.472,4.888,4.888,0,0,0-3.314.756,10.038,10.038,0,0,1-4.384,1.318,7.236,7.236,0,0,1-4.143-.9,6.842,6.842,0,0,0-3.424-.854,9.7,9.7,0,0,0-3.692.705,9.838,9.838,0,0,1-4.86.7,9.312,9.312,0,0,1-2.976-.775,4.34,4.34,0,0,0-2.223-.466,7.606,7.606,0,0,0-3.133.717,10.192,10.192,0,0,1-3.438.874c-.207.017-.414.022-.622.022Z" transform="translate(0.206 29.284)"/></g></g></svg>