<svg xmlns="http://www.w3.org/2000/svg" xmlns:xlink="http://www.w3.org/1999/xlink" width="98" height="98" viewBox="0 0 98 98"><defs><style>.a{fill:none;stroke:#707070;}.b{clip-path:url(#a);}.c{fill:url(#b);}.d{fill:#fff;}</style><clipPath id="a"><rect class="a" width="98" height="98" transform="translate(414 792)"/></clipPath><linearGradient id="b" x1="0.5" x2="0.5" y2="1" gradientUnits="objectBoundingBox"><stop offset="0" stop-color="#8c92f9"/><stop offset="1" stop-color="#b6bdfd"/></linearGradient></defs><g class="b" transform="translate(-414 -792)"><rect class="c" width="96" height="96" rx="16" transform="translate(415 793)"/><g transform="translate(1016.851 639.801)"><path class="d" d="M-558.366,184.7A11.231,11.231,0,0,0-569.6,195.934a11.231,11.231,0,0,0,11.234,11.234,11.231,11.231,0,0,0,11.234-11.234A11.231,11.231,0,0,0-558.366,184.7Zm5.982,9.549-6.038,6.01a1.394,1.394,0,0,1-2.247,0l-3.792-3.763a1.394,1.394,0,0,1,0-2.247,1.422,1.422,0,0,1,2.275,0l1.854,1.854.758.758,4.887-4.887a1.422,1.422,0,0,1,2.275,0A1.438,1.438,0,0,1-552.384,194.249Z" transform="translate(19.281 20.63)"/><path class="d" d="M-552.677,214.024h-15.686a1.768,1.768,0,0,1-1.9-1.864,1.77,1.77,0,0,1,1.9-1.864h16.082a15.608,15.608,0,0,1,3.431-6.013h-19.513a1.77,1.77,0,0,1-1.9-1.864,1.786,1.786,0,0,1,1.9-1.864h26.039a10.111,10.111,0,0,1,3.063-.361,14.7,14.7,0,0,1,8.028,2.617V181.7a6.8,6.8,0,0,0-6.893-6.763h-1.164v7.155a6.8,6.8,0,0,1-6.893,6.766h-17.982a6.847,6.847,0,0,1-6.893-6.8v-7.124h-1.9a6.8,6.8,0,0,0-6.893,6.763v37.585a6.8,6.8,0,0,0,6.893,6.766h30.266a12.953,12.953,0,0,1-9.985-12.028Zm0,0" transform="translate(0 3.147)"/><path class="d" d="M-572.155,188.643h17.739a3.373,3.373,0,0,0,3.379-3.379v-7.178h-6.788a5.713,5.713,0,0,0-5.67-4.887,5.6,5.6,0,0,0-5.28,4.887h-6.788v7.178a3.38,3.38,0,0,0,3.409,3.379Z" transform="translate(8.085 0)"/></g></g></svg>