<svg xmlns="http://www.w3.org/2000/svg" xmlns:xlink="http://www.w3.org/1999/xlink" width="98" height="98" viewBox="0 0 98 98"><defs><style>.a{fill:none;stroke:#707070;}.b{clip-path:url(#a);}.c{fill:url(#b);}.d{fill:#fff;}</style><clipPath id="a"><rect class="a" width="98" height="98" transform="translate(63 302)"/></clipPath><linearGradient id="b" x2="0.907" y2="1" gradientUnits="objectBoundingBox"><stop offset="0" stop-color="#0a90f5"/><stop offset="1" stop-color="#33b4f1"/></linearGradient></defs><g class="b" transform="translate(-63 -302)"><rect class="c" width="96" height="96" rx="16" transform="translate(64 303)"/><path class="d" d="M-950.845,990.556h-4.6a.566.566,0,0,0-.556.553v2.527a.56.56,0,0,1-.556.554h-4.3a.567.567,0,0,1-.556-.554v-2.527a.563.563,0,0,0-.556-.553h-2.017a.57.57,0,0,1-.556-.558V974.773a.563.563,0,0,1,.556-.553h2.017a.57.57,0,0,0,.556-.557V971.14a.57.57,0,0,1,.556-.558h4.3a.571.571,0,0,1,.561.558v2.523a.566.566,0,0,0,.556.557h4.6a.563.563,0,0,1,.556.553V990a.57.57,0,0,1-.556.558Zm-18.672-21.461a.491.491,0,0,1,.029.167v4.448a.566.566,0,0,0,.556.554h.692a.57.57,0,0,1,.556.558v15.224a.567.567,0,0,1-.556.553h-.692a.57.57,0,0,0-.556.558v.639a.567.567,0,0,1-.557.558h-10.1a.57.57,0,0,1-.556-.558v-.639a.567.567,0,0,0-.557-.558h-.774a.567.567,0,0,1-.556-.553V974.816a.573.573,0,0,1,.556-.558h.774a.564.564,0,0,0,.557-.554v-4.5a18.928,18.928,0,0,1-13.579-18.119,18.949,18.949,0,0,1,18.987-18.9,19.114,19.114,0,0,1,18.77,16.04,18.9,18.9,0,0,1-13,20.866Zm-5.776-30.922a13.111,13.111,0,0,0-12.19,7.887,12.765,12.765,0,0,0,2.757,14.113,13.24,13.24,0,0,0,14.29,2.856,12.911,12.911,0,0,0,8.117-11.944,12.744,12.744,0,0,0-3.769-9.107,13.131,13.131,0,0,0-9.206-3.805Zm6.473,14.982c0-.019,0,0-.024,0l-.934-2.6L-972,956.869a1.013,1.013,0,0,1-.895.682h-.072a1.019,1.019,0,0,1-.91-.558l-2.259-4.558-.532.839a.93.93,0,0,1-.88.405h-8.64a1.1,1.1,0,0,1-1.011-1.087,1.1,1.1,0,0,1,1.011-1.088h8.05l1.156-1.86c.184-.319.522-.31.885-.31h.039a.961.961,0,0,1,.885.511l2.061,4.1,2.385-6.714a.981.981,0,0,1,.953-.644c.431,0,.813.052.958.454l1.65,4.443h2.559a1.1,1.1,0,0,1,1.016,1.087,1.1,1.1,0,0,1-1.016,1.087h-3.275a.928.928,0,0,1-.929-.51Zm-25.16,20.513v-3.128a.566.566,0,0,1,.556-.553h4.3a.56.56,0,0,1,.556.553v3.123a.571.571,0,0,0,.556.577h1.717a.564.564,0,0,1,.562.534V990a.571.571,0,0,1-.557.558h-1.722a.566.566,0,0,0-.556.553v1.969a.567.567,0,0,1-.556.558h-4.3a.574.574,0,0,1-.556-.558v-1.969a.566.566,0,0,0-.556-.553h-5.205a.574.574,0,0,1-.556-.558V974.773a.562.562,0,0,1,.556-.534h5.2a.57.57,0,0,0,.556-.572Zm0,0" transform="translate(1087.294 -612.189)"/></g></svg>