<svg xmlns="http://www.w3.org/2000/svg" xmlns:xlink="http://www.w3.org/1999/xlink" width="98" height="98" viewBox="0 0 98 98"><defs><style>.a{fill:none;stroke:#707070;}.b{clip-path:url(#a);}.c{fill:url(#b);}.d{fill:#fff;}</style><clipPath id="a"><rect class="a" width="98" height="98" transform="translate(238 2212)"/></clipPath><linearGradient id="b" x1="0.5" x2="0.5" y2="1" gradientUnits="objectBoundingBox"><stop offset="0" stop-color="#8c92f9"/><stop offset="1" stop-color="#b6bdfd"/></linearGradient></defs><g class="b" transform="translate(-238 -2212)"><rect class="c" width="96" height="96" rx="16" transform="translate(239 2213)"/><g transform="translate(910.125 1855.083)"><path class="d" d="M-639.451,385.2h21.469a3.7,3.7,0,0,0,3.756-3.64,3.7,3.7,0,0,0-3.756-3.64h-21.469a3.7,3.7,0,0,0-3.756,3.64,3.7,3.7,0,0,0,3.756,3.64Z" transform="translate(5.252)"/><path class="d" d="M-603.18,378.993h-3.2v4.2a2.607,2.607,0,0,1-2.633,2.582h-28.915a2.608,2.608,0,0,1-2.633-2.582v-4.2h-2.516a3.025,3.025,0,0,0-3.053,2.993v47a3.025,3.025,0,0,0,3.053,2.993h39.892a3.027,3.027,0,0,0,3.055-2.993v-47A3.032,3.032,0,0,0-603.18,378.993ZM-616.3,397.436c3.427,0,5.708,2.82,5.708,8.529s-2.281,8.666-5.708,8.666c-3.447,0-5.731-2.957-5.731-8.666C-622.03,400.234-619.746,397.436-616.3,397.436ZM-632.333,407v-2.374c3.1,0,4.109-1.05,4.109-2.528a2,2,0,0,0-2.259-2.083,4.865,4.865,0,0,0-3.2,1.478l-1.713-2.013a7.563,7.563,0,0,1,5.069-2.039c3.267,0,5.48,1.568,5.48,4.41a3.933,3.933,0,0,1-2.83,3.783v.112a4.163,4.163,0,0,1,3.378,4.074c0,3.046-2.716,4.816-5.937,4.816a7.241,7.241,0,0,1-5.66-2.31l1.573-2.08a5.41,5.41,0,0,0,3.767,1.7c1.713,0,2.878-.829,2.878-2.3C-627.675,408-628.658,407-632.333,407Zm23.484,17.573H-637.4a1.389,1.389,0,0,1-1.4-1.375,1.388,1.388,0,0,1,1.4-1.372h28.555a1.386,1.386,0,0,1,1.4,1.372A1.387,1.387,0,0,1-608.849,424.568Z" transform="translate(0 1.937)"/><path class="d" d="M-634.069,398.559c1.411,0,2.486-1.434,2.486-6.09,0-4.634-1.075-5.978-2.486-5.978-1.431,0-2.506,1.344-2.506,5.978C-636.575,397.125-635.5,398.559-634.069,398.559Z" transform="translate(17.787 15.433)"/></g></g></svg>