<svg xmlns="http://www.w3.org/2000/svg" xmlns:xlink="http://www.w3.org/1999/xlink" width="98" height="98" viewBox="0 0 98 98"><defs><style>.a{fill:none;stroke:#707070;}.b{clip-path:url(#a);}.c{fill:url(#b);}.d{fill:#fff;}</style><clipPath id="a"><rect class="a" width="98" height="98" transform="translate(414 302)"/></clipPath><linearGradient id="b" x2="1" y2="1" gradientUnits="objectBoundingBox"><stop offset="0" stop-color="#8c92f9"/><stop offset="1" stop-color="#b6bdfd"/></linearGradient></defs><g class="b" transform="translate(-414 -302)"><rect class="c" width="96" height="96" rx="16" transform="translate(415 303)"/><g transform="translate(1390.449 -605.059)"><path class="d" d="M-908.309,945.978A101.335,101.335,0,0,0-925.67,929.46l-1.765-1.4-1.765,1.4a102.572,102.572,0,0,0-17.39,16.518,21.654,21.654,0,0,0-5.834,15.818,21.791,21.791,0,0,0,7.315,15.23,25.685,25.685,0,0,0,35.32,0,21.791,21.791,0,0,0,7.314-15.23A21.653,21.653,0,0,0-908.309,945.978ZM-923.023,959.3l.028-1.036h8.88V959.3Zm8.908,1.036v2.1h-8.908v-2.1ZM-932.387,970a.88.88,0,0,1-.256.644.515.515,0,0,1-.2.14.871.871,0,0,1-.455.14h-5.436a.97.97,0,0,1-.854-.476.925.925,0,0,1,0-1.008h.028a.925.925,0,0,1,.825-.476h5.294a1.032,1.032,0,0,1,1.053.98Zm5.521-13.746v3.892a8.5,8.5,0,0,1-8.595,7.587h-.285a8.526,8.526,0,0,1-8.339-7.7,1.824,1.824,0,0,1-.028-.392v-11.7h6.261v11.786a2.22,2.22,0,0,0,1.309,2.016,2.344,2.344,0,0,0,2.448-.224,2.241,2.241,0,0,0,.911-1.792v-3.471a8.544,8.544,0,0,1,7.2-7.839,8.459,8.459,0,0,1,1.451-.112,8.559,8.559,0,0,1,8.652,7.951v.784H-922.2v-.784a2.282,2.282,0,0,0-1.679-2.156,2.358,2.358,0,0,0-2.619.924A2.4,2.4,0,0,0-926.866,956.252Zm8.311,19.709-7.77-10.387H-923v-2.1h8.88v2.1h3.33Z" transform="translate(0 0)"/></g></g></svg>