<svg xmlns="http://www.w3.org/2000/svg" xmlns:xlink="http://www.w3.org/1999/xlink" width="98" height="98" viewBox="0 0 98 98"><defs><style>.a{fill:none;stroke:#707070;}.b{clip-path:url(#a);}.c{fill:url(#b);}.d{fill:#fff;}</style><clipPath id="a"><rect class="a" width="98" height="98" transform="translate(589 2212)"/></clipPath><linearGradient id="b" x1="0.5" x2="0.5" y2="1" gradientUnits="objectBoundingBox"><stop offset="0" stop-color="#0a90f5"/><stop offset="1" stop-color="#33b4f1"/></linearGradient></defs><g class="b" transform="translate(-589 -2212)"><rect class="c" width="96" height="96" rx="16" transform="translate(590 2213)"/><g transform="translate(1212.256 1855.083)"><path class="d" d="M-590.579,385.186h21.49a3.7,3.7,0,0,0,3.759-3.634,3.7,3.7,0,0,0-3.759-3.634h-21.49a3.7,3.7,0,0,0-3.759,3.634,3.7,3.7,0,0,0,3.759,3.634Z" transform="translate(5.239 0)"/><path class="d" d="M-554.311,378.993h-3.2v4.2a2.607,2.607,0,0,1-2.633,2.582h-28.915a2.609,2.609,0,0,1-2.633-2.582v-4.2H-594.2a3.025,3.025,0,0,0-3.052,2.993v47.005a3.025,3.025,0,0,0,3.052,2.993h39.892a3.027,3.027,0,0,0,3.055-2.993V381.986A3.033,3.033,0,0,0-554.311,378.993Zm-13.667,18.445c3.2,0,5.32,2.014,5.32,5.1,0,3-2.536,6.225-5.617,9.182.845-.092,1.965-.179,2.741-.179h3.675v2.775h-11.325v-1.9c4.589-4.032,7.3-7.143,7.3-9.694a2.4,2.4,0,0,0-2.533-2.688,4.4,4.4,0,0,0-3.107,1.7l-1.825-1.789A6.893,6.893,0,0,1-567.978,397.438Zm-17.77,14.217h3.629V401.177h-3.058v-2.036a11.1,11.1,0,0,0,3.926-1.392h2.487v13.906h3.175v2.663h-10.16Zm25.768,12.918h-28.555a1.389,1.389,0,0,1-1.4-1.375,1.388,1.388,0,0,1,1.4-1.372h28.555a1.389,1.389,0,0,1,1.4,1.372A1.389,1.389,0,0,1-559.98,424.573Z" transform="translate(0 1.932)"/></g></g></svg>