<svg xmlns="http://www.w3.org/2000/svg" xmlns:xlink="http://www.w3.org/1999/xlink" width="98" height="98" viewBox="0 0 98 98"><defs><style>.a{fill:none;stroke:#707070;}.b{clip-path:url(#a);}.c{fill:url(#b);}.d{fill:#fff;}</style><clipPath id="a"><rect class="a" width="98" height="98" transform="translate(414 1102)"/></clipPath><linearGradient id="b" x1="0.5" x2="0.5" y2="1" gradientUnits="objectBoundingBox"><stop offset="0" stop-color="#f7b1a5"/><stop offset="1" stop-color="#fd6edc"/></linearGradient></defs><g class="b" transform="translate(-414 -1102)"><rect class="c" width="96" height="96" rx="16" transform="translate(415 1103)"/><g transform="translate(1052.763 889.098)"><path class="d" d="M-562.847,264.336h-11.581a1.081,1.081,0,0,1-1.4-.869l-1.756-5.565-5.438,25.565s-.176,1.391-.876,1.391h-1.932a1.153,1.153,0,0,1-1.4-.869l-6.843-33.217-5.088,24a1.311,1.311,0,0,1-1.4.869h-1.753a1.087,1.087,0,0,1-1.406-.869l-3.509-10.608h-9.3a.956.956,0,0,1-1.227-.871v-2.434a1.193,1.193,0,0,1,1.227-1.216h11.581c.7,0,1.227,0,1.4.694l1.753,5.565,5.091-26.084a1.091,1.091,0,0,1,1.05-.872h2.458a1.155,1.155,0,0,1,1.4.872l6.667,32.867,4.912-23.653c.176-.522.7-1.044,1.229-.869h1.929a1.083,1.083,0,0,1,1.4.869l3.335,10.783h9.3a1.192,1.192,0,0,1,1.226,1.218v2.259c.176.522-.35,1.044-1.05,1.044Zm0,0" transform="translate(0 0)"/></g></g></svg>