<svg xmlns="http://www.w3.org/2000/svg" xmlns:xlink="http://www.w3.org/1999/xlink" width="98" height="98" viewBox="0 0 98 98"><defs><style>.a{fill:none;stroke:#707070;}.b{clip-path:url(#a);}.c{fill:url(#b);}.d{fill:#fff;}</style><clipPath id="a"><rect class="a" width="98" height="98" transform="translate(414 2522)"/></clipPath><linearGradient id="b" x1="0.5" x2="0.5" y2="1" gradientUnits="objectBoundingBox"><stop offset="0" stop-color="#0a90f5"/><stop offset="1" stop-color="#33b4f1"/></linearGradient></defs><g class="b" transform="translate(-414 -2522)"><rect class="c" width="96" height="96" rx="16" transform="translate(415 2523)"/><path class="d" d="M-614.037,415.278h44.085a4.519,4.519,0,0,1,4.077,3.178v49.51a4.5,4.5,0,0,1-4.247,3.312h-43.247a4.639,4.639,0,0,1-4.507-3.116V418.5a4.482,4.482,0,0,1,3.837-3.217m2.81,2.839q-.013,25.078,0,50.145c2.154,0,4.306.008,6.46,0V418.126q-3.24-.013-6.46-.008m22.665.008q.013,11.113.009,22.212c2.16-2.772,4.306-5.564,6.46-8.341,2.163,2.778,4.3,5.564,6.463,8.333q.013-11.113,0-22.212-6.463,0-12.932.008Zm0,0" transform="translate(1054.874 2127.722)"/></g></svg>