<svg xmlns="http://www.w3.org/2000/svg" xmlns:xlink="http://www.w3.org/1999/xlink" width="98" height="98" viewBox="0 0 98 98"><defs><style>.a{fill:none;stroke:#707070;}.b{clip-path:url(#a);}.c{fill:url(#b);}.d{fill:#fff;}</style><clipPath id="a"><rect class="a" width="98" height="98" transform="translate(414 1902)"/></clipPath><linearGradient id="b" x1="0.5" x2="0.5" y2="1" gradientUnits="objectBoundingBox"><stop offset="0" stop-color="#8c92f9"/><stop offset="1" stop-color="#b6bdfd"/></linearGradient></defs><g class="b" transform="translate(-414 -1902)"><rect class="c" width="96" height="96" rx="16" transform="translate(415 1903)"/><g transform="translate(1043.21 1587.68)"><g transform="translate(-608.21 335.32)"><path class="d" d="M-553.918,380.96a7.025,7.025,0,0,1-6.44,4.228h-.084a7.183,7.183,0,0,1-7.112-7.224,15.266,15.266,0,0,1,1.148-5.292c-.28-.112-.616-.252-.952-.392a72.252,72.252,0,0,1-6.692-3.08l-.056-5.32s2.016-1.6,2.66-6.636c1.26.392,1.708-1.54,1.764-2.744.084-1.2.756-4.872-.812-4.536a32.981,32.981,0,0,0,.476-5.88c-.392-4.116-3.164-8.456-10.164-8.764-5.936.308-9.772,4.648-10.164,8.764a34.5,34.5,0,0,0,.42,5.88c-1.54-.336-.868,3.36-.812,4.536.084,1.232.5,3.136,1.764,2.772.644,5.012,2.66,6.636,2.66,6.636l-.028,5.348a61.737,61.737,0,0,1-6.72,3.136c-5.432,2.324-3.724.476-8.148,2.744-3.5,1.792-5.236,5.152-6.132,8.064a21.221,21.221,0,0,0-.868,5.4,2.666,2.666,0,0,0,2.632,2.716h50.736a2.666,2.666,0,0,0,2.632-2.716A20.813,20.813,0,0,0-553.918,380.96Z" transform="translate(608.21 -335.32)"/></g><path class="d" d="M-587.695,346.431l-.03.03-.03-.03s-5.318,6.156-5.318,11.145A5.385,5.385,0,0,0-587.756,363h.061a5.363,5.363,0,0,0,5.318-5.423c0-4.99-5.318-11.145-5.318-11.145Zm0,0" transform="translate(27.426 20.33)"/></g></g></svg>