<svg xmlns="http://www.w3.org/2000/svg" xmlns:xlink="http://www.w3.org/1999/xlink" width="98" height="98" viewBox="0 0 98 98"><defs><style>.a{fill:none;stroke:#707070;}.b{clip-path:url(#a);}.c{fill:url(#b);}.d{fill:#fff;}</style><clipPath id="a"><rect class="a" width="98" height="98" transform="translate(63 2832)"/></clipPath><linearGradient id="b" x1="0.5" x2="0.5" y2="1" gradientUnits="objectBoundingBox"><stop offset="0" stop-color="#0a90f5"/><stop offset="1" stop-color="#33b4f1"/></linearGradient></defs><g class="b" transform="translate(-63 -2832)"><rect class="c" width="96" height="96" rx="16" transform="translate(64 2833)"/><g transform="translate(757.683 2392.982)"><g transform="translate(-673.683 460.018)"><path class="d" d="M-665.446,460.018h39.528a8.234,8.234,0,0,1,8.235,8.235v39.53a8.232,8.232,0,0,1-8.235,8.235h-39.528a8.235,8.235,0,0,1-8.237-8.235v-39.53a8.236,8.236,0,0,1,8.237-8.235Zm24.8,17.945h10.273c.77,0,1.162-.375,1.165-1.1V476c0-.734-.395-1.1-1.184-1.1h-20.5a1,1,0,0,0-1.142,1.081c0,.283.017.566-.006.843-.053.7.439,1.156,1.229,1.151,3.388-.02,6.779-.008,10.17-.008Zm.034,8.792h-10.254c-.8,0-1.182.37-1.182,1.12v.826c0,.753.386,1.12,1.184,1.12h12.351c2.691,0,5.382-.014,8.072.008.767.006,1.285-.434,1.226-1.148-.02-.26,0-.524,0-.787,0-.778-.378-1.14-1.2-1.14Zm-.255,14.935h10.1a.994.994,0,0,0,1.12-1.086v-.885q0-1.1-1.159-1.1h-20.14a.987.987,0,0,0-1.1,1.064v.9q0,1.1,1.159,1.106Zm-13.818-23.915c0-.9,0-1.8,0-2.7a1.008,1.008,0,0,0-1.061-1.056q-2.667,0-5.334,0a1.009,1.009,0,0,0-1.067,1.07q0,2.658,0,5.314a1.011,1.011,0,0,0,1.081,1.078q2.646,0,5.295,0a1.013,1.013,0,0,0,1.086-1.092c0-.871,0-1.744,0-2.615Zm0,21.078v-2.635a1.023,1.023,0,0,0-1.106-1.117h-5.255a1.02,1.02,0,0,0-1.106,1.117v5.233a1.018,1.018,0,0,0,1.106,1.114h5.255a1.021,1.021,0,0,0,1.106-1.114Zm.876-14.367c-.036-.26-.227-.426-.442-.347a1.248,1.248,0,0,0-.395.252q-2.3,2.171-4.589,4.348c-.106.1-.174.118-.294.017-.58-.484-1.168-.963-1.753-1.439a1.274,1.274,0,0,0-.227-.16.418.418,0,0,0-.51.084.4.4,0,0,0-.1.482,1.293,1.293,0,0,0,.157.277q1,1.394,2,2.783a1.316,1.316,0,0,0,.213.238.4.4,0,0,0,.526.048,1.47,1.47,0,0,0,.269-.26q.546-.651,1.086-1.308,1.919-2.31,3.83-4.626a2.386,2.386,0,0,0,.218-.389Zm0,0" transform="translate(673.683 -460.018)"/></g></g></g></svg>