<svg xmlns="http://www.w3.org/2000/svg" xmlns:xlink="http://www.w3.org/1999/xlink" width="98" height="98" viewBox="0 0 98 98"><defs><style>.a{fill:none;stroke:#707070;}.b{clip-path:url(#a);}.c{fill:url(#b);}.d{fill:#fff;}</style><clipPath id="a"><rect class="a" width="98" height="98" transform="translate(589 1902)"/></clipPath><linearGradient id="b" x1="0.5" x2="0.5" y2="1" gradientUnits="objectBoundingBox"><stop offset="0" stop-color="#f7b1a5"/><stop offset="1" stop-color="#fd6edc"/></linearGradient></defs><g class="b" transform="translate(-589 -1902)"><rect class="c" width="96" height="96" rx="16" transform="translate(590 1903)"/><g transform="translate(1184.815 1587.575)"><path class="d" d="M-546.613,338.9l-2.943-3.472-2.955,3.461a109.373,109.373,0,0,0-10.533,14.867,60.087,60.087,0,0,0-4.07,8.37,26.478,26.478,0,0,0-2.015,9.276,20.475,20.475,0,0,0,.739,5.3,20.14,20.14,0,0,0,3.431,6.972,19.313,19.313,0,0,0,15.369,7.753c10.768,0,19.531-8.993,19.531-20.046,0-12.626-14.859-30.487-16.554-32.482Zm6.063,44.3a13.452,13.452,0,0,1-9.625,2.652,7.867,7.867,0,0,1-2.249-.736,24.708,24.708,0,0,0,6.519-3.328c4.527-3.234,7.841-7.864,8.758-12.521a5.868,5.868,0,0,1,2.311,4.414c-.008,3.464-2.327,7.1-5.714,9.519Zm0,0" transform="translate(10.947 0)"/><path class="d" d="M-546.025,359.149a52.41,52.41,0,0,0-4.474-8.215,81.788,81.788,0,0,0-6.112-8.2l-2.988-3.464-3,3.458c-1.285,1.474-12.555,14.743-12.513,24.316a15.615,15.615,0,0,0,15.484,15.609,15.257,15.257,0,0,0,7.19-1.8,15.735,15.735,0,0,0,5.778-5.32,12.586,12.586,0,0,1-2.148-6.992c-.011-2.68,1.12-5.982,2.781-9.392Zm-8.492,17.49a8.271,8.271,0,0,1-5.86,1.582,4.894,4.894,0,0,1-1.375-.433,15.205,15.205,0,0,0,3.973-2,12.76,12.76,0,0,0,5.334-7.5,3.461,3.461,0,0,1,1.409,2.64c0,2.074-1.421,4.259-3.481,5.716Zm0,0" transform="translate(0 7.036)"/></g></g></svg>