<svg xmlns="http://www.w3.org/2000/svg" xmlns:xlink="http://www.w3.org/1999/xlink" width="98" height="98" viewBox="0 0 98 98"><defs><style>.a{fill:none;stroke:#707070;}.b{clip-path:url(#a);}.c{fill:url(#b);}.d{fill:#fff;}</style><clipPath id="a"><rect class="a" width="98" height="98" transform="translate(63 2212)"/></clipPath><linearGradient id="b" x1="0.5" x2="0.5" y2="1" gradientUnits="objectBoundingBox"><stop offset="0" stop-color="#f7b1a5"/><stop offset="1" stop-color="#fd6edc"/></linearGradient></defs><g class="b" transform="translate(-63 -2212)"><rect class="c" width="96" height="96" rx="16" transform="translate(64 2213)"/><g transform="translate(760.367 1855.083)"><path class="d" d="M-664.7,385.219h21.432a3.7,3.7,0,0,0,3.749-3.651,3.7,3.7,0,0,0-3.749-3.651H-664.7a3.7,3.7,0,0,0-3.749,3.651,3.7,3.7,0,0,0,3.749,3.651Z" transform="translate(5.279 0)"/><path class="d" d="M-628.42,378.993h-3.2v4.2a2.606,2.606,0,0,1-2.633,2.581h-28.912a2.606,2.606,0,0,1-2.633-2.581v-4.2h-2.519a3.024,3.024,0,0,0-3.053,2.993v46.993a3.025,3.025,0,0,0,3.053,2.993h39.895a3.025,3.025,0,0,0,3.053-2.993V381.986A3.028,3.028,0,0,0-628.42,378.993Zm-19.375,28.779,6.3-10.028h4.018v9.762h2.01v2.506h-2.01v4.3H-640.6v-4.3h-7.19Zm-7.747-10.339c3.2,0,5.32,2.013,5.32,5.1,0,3-2.536,6.223-5.617,9.18.845-.092,1.962-.179,2.739-.179h3.675v2.774h-11.322v-1.9c4.586-4.031,7.3-7.142,7.3-9.692a2.4,2.4,0,0,0-2.533-2.688,4.4,4.4,0,0,0-3.107,1.7l-1.828-1.789A6.9,6.9,0,0,1-655.542,397.433Zm21.451,27.127h-28.555a1.389,1.389,0,0,1-1.4-1.375,1.388,1.388,0,0,1,1.4-1.372h28.555a1.389,1.389,0,0,1,1.4,1.372A1.389,1.389,0,0,1-634.091,424.561Z" transform="translate(0 1.946)"/><path class="d" d="M-658.108,390.184c0-.966.09-2.471.135-3.437h-.09c-.4.876-.851,1.8-1.323,2.7l-2.584,4.131h3.862Z" transform="translate(17.482 15.884)"/></g></g></svg>