<svg xmlns="http://www.w3.org/2000/svg" xmlns:xlink="http://www.w3.org/1999/xlink" width="98" height="98" viewBox="0 0 98 98"><defs><style>.a{fill:none;stroke:#707070;}.b{clip-path:url(#a);}.c{fill:url(#b);}.d{fill:#fff;}</style><clipPath id="a"><rect class="a" width="98" height="98" transform="translate(238 484)"/></clipPath><linearGradient id="b" x1="0.5" x2="0.5" y2="1" gradientUnits="objectBoundingBox"><stop offset="0" stop-color="#8c92f9"/><stop offset="1" stop-color="#b6bdfd"/></linearGradient></defs><g class="b" transform="translate(-238 -484)"><rect class="c" width="96" height="96" rx="16" transform="translate(239 485)"/><path class="d" d="M-987.584,963.869v-22.1a7.176,7.176,0,0,0,4.629-7.986,7.2,7.2,0,0,0-7.072-5.946,7.178,7.178,0,0,0-6.85,5.086h-27.859a7.17,7.17,0,0,0-6.858-5.086,7.2,7.2,0,0,0-7.057,5.727,7.181,7.181,0,0,0,4.189,8.054v22.4a7.176,7.176,0,0,0-4.207,8.059,7.2,7.2,0,0,0,7.074,5.722,7.174,7.174,0,0,0,6.908-5.248h27.758a7.183,7.183,0,0,0,7.911,5.216,7.169,7.169,0,0,0,6.2-7.158,7.169,7.169,0,0,0-4.765-6.74Zm-43.447-.388V942.165a7.174,7.174,0,0,0,6.516-5.825h27.429a7.161,7.161,0,0,0,6.076,5.78v21.4a7.176,7.176,0,0,0-6.054,5.612h-27.474a7.175,7.175,0,0,0-6.493-5.649Zm0,0" transform="translate(1297.819 -419.835)"/></g></svg>