<svg xmlns="http://www.w3.org/2000/svg" xmlns:xlink="http://www.w3.org/1999/xlink" width="98" height="98" viewBox="0 0 98 98"><defs><style>.a{fill:none;stroke:#707070;}.b{clip-path:url(#a);}.c{fill:url(#b);}.d{fill:#fff;}</style><clipPath id="a"><rect class="a" width="98" height="98" transform="translate(238 792)"/></clipPath><linearGradient id="b" x1="0.5" x2="0.5" y2="1" gradientUnits="objectBoundingBox"><stop offset="0" stop-color="#1fc5ba"/><stop offset="1" stop-color="#1cd2bc"/></linearGradient></defs><g class="b" transform="translate(-238 -792)"><rect class="c" width="96" height="96" rx="16" transform="translate(239 793)"/><g transform="translate(870.675 639.678)"><g transform="translate(-580.25 205.35)"><path class="d" d="M-588.138,207.4a11.288,11.288,0,0,1-11.288-11.288,11.288,11.288,0,0,1,11.288-11.288,11.288,11.288,0,0,1,11.288,11.288A11.288,11.288,0,0,1-588.138,207.4Zm.943-10.734v-5.26a.945.945,0,0,0-.943-.937.937.937,0,0,0-.94.937v5.649a.941.941,0,0,0,.268.66l2.675,2.672a.926.926,0,0,0,.663.271.936.936,0,0,0,.66-.277.941.941,0,0,0,.006-1.323Zm0,0" transform="translate(599.426 -184.827)"/></g><path class="d" d="M-582.51,214.132h-15.68a1.769,1.769,0,0,1-1.9-1.863,1.768,1.768,0,0,1,1.9-1.863h16.079a15.542,15.542,0,0,1,3.43-6.01h-19.509a1.769,1.769,0,0,1-1.9-1.863,1.782,1.782,0,0,1,1.9-1.863h26.033a10.1,10.1,0,0,1,3.063-.361,14.723,14.723,0,0,1,8.024,2.613v-21.1a6.8,6.8,0,0,0-6.892-6.763h-1.163v7.154a6.8,6.8,0,0,1-6.892,6.76H-594a6.84,6.84,0,0,1-6.889-6.791v-7.123h-1.9a6.8,6.8,0,0,0-6.892,6.763v37.568a6.8,6.8,0,0,0,6.892,6.76h30.259a12.941,12.941,0,0,1-9.986-12.02Zm0,0" transform="translate(0 3.17)"/><path class="d" d="M-601.966,188.842h17.823a3.389,3.389,0,0,0,3.395-3.395v-7.216h-6.821a5.741,5.741,0,0,0-5.7-4.91,5.634,5.634,0,0,0-5.305,4.91h-6.818v7.216a3.4,3.4,0,0,0,3.423,3.395Z" transform="translate(8.035 0)"/></g></g></svg>