<svg xmlns="http://www.w3.org/2000/svg" xmlns:xlink="http://www.w3.org/1999/xlink" width="98" height="98" viewBox="0 0 98 98"><defs><style>.a{fill:none;stroke:#707070;}.b{clip-path:url(#a);}.c{fill:url(#b);}.d{fill:#fff;}</style><clipPath id="a"><rect class="a" width="98" height="98" transform="translate(63 1284)"/></clipPath><linearGradient id="b" x1="0.5" x2="0.5" y2="1" gradientUnits="objectBoundingBox"><stop offset="0" stop-color="#0a90f5"/><stop offset="1" stop-color="#33b4f1"/></linearGradient></defs><g class="b" transform="translate(-63 -1284)"><rect class="c" width="96" height="96" rx="16" transform="translate(64 1285)"/><g transform="translate(645.598 1067.811)"><path class="d" d="M-550.615,246.412a.58.58,0,0,0-.189-.153l-.009,0a.487.487,0,0,0-.212-.051.487.487,0,0,0-.212.051l-.009,0a.609.609,0,0,0-.189.153l-4.272,5.17a.814.814,0,0,0,0,.994.514.514,0,0,0,.822,0l3.277-3.969v11.139a.654.654,0,0,0,.582.7.652.652,0,0,0,.582-.7V248.607l3.317,4.014a.539.539,0,0,0,.41.206.544.544,0,0,0,.412-.206.814.814,0,0,0,0-.994Zm0,0" transform="translate(10.272 16.154)"/><path class="d" d="M-543.677,254.19l-3.28,3.808V247.314a.635.635,0,0,0-.582-.675.633.633,0,0,0-.582.675V258l-3.317-3.851a.524.524,0,0,0-.819,0,.746.746,0,0,0,0,.952l4.305,5a.6.6,0,0,0,.192.147l.009,0a.528.528,0,0,0,.212.048.541.541,0,0,0,.212-.048l.008,0a.591.591,0,0,0,.189-.147l4.271-4.961a.746.746,0,0,0,0-.952.524.524,0,0,0-.819,0Zm0,0" transform="translate(16.459 16.935)"/><path class="d" d="M-533.6,237.189a28,28,0,0,0-28,28,28,28,0,0,0,28,28,28,28,0,0,0,28-28,28,28,0,0,0-28-28Zm-2.789,48.541h0a15.844,15.844,0,0,1-9.917-3.438,12.689,12.689,0,0,1-5.093-10.9,14.114,14.114,0,0,1,1.3-4.738,78.558,78.558,0,0,1,6.7-12.281c1.335-2.064,2.75-4.122,4.119-6.112l.759-1.1.017-.025a2.772,2.772,0,0,1,2.156-1.3,2.6,2.6,0,0,1,2.117,1.274l.454.647a128.365,128.365,0,0,1,9.878,16.159,24.556,24.556,0,0,1,2.383,6.4,11.676,11.676,0,0,1-1.98,8.75,15.3,15.3,0,0,1-12.888,6.661Zm17.951-7.412a14.582,14.582,0,0,1-7.932,5.152,14.38,14.38,0,0,0,4.886-4.642,11.522,11.522,0,0,0,1.831-8.669,24.19,24.19,0,0,0-2.442-6.289,126.826,126.826,0,0,0-9.982-15.817l-.3-.417.647-.806.829-1.033.02-.022a2.746,2.746,0,0,1,2.218-1.12,2.563,2.563,0,0,1,1.991,1.408l.4.669a127.013,127.013,0,0,1,8.548,16.635,24.339,24.339,0,0,1,1.879,6.479,11.529,11.529,0,0,1-2.59,8.473Zm0,0" transform="translate(0 0)"/></g></g></svg>