<svg xmlns="http://www.w3.org/2000/svg" xmlns:xlink="http://www.w3.org/1999/xlink" width="98" height="98" viewBox="0 0 98 98"><defs><style>.a{fill:none;stroke:#707070;}.b{clip-path:url(#a);}.c{fill:url(#b);}.d{fill:#fff;}</style><clipPath id="a"><rect class="a" width="98" height="98" transform="translate(63 1102)"/></clipPath><linearGradient id="b" x1="0.5" x2="0.5" y2="1" gradientUnits="objectBoundingBox"><stop offset="0" stop-color="#1fc5ba"/><stop offset="1" stop-color="#1cd2bc"/></linearGradient></defs><g class="b" transform="translate(-63 -1102)"><rect class="c" width="96" height="96" rx="16" transform="translate(64 1103)"/><g transform="translate(756.6 885.808)"><g transform="translate(-672.6 237.192)"><path class="d" d="M-644.132,280.86A16.53,16.53,0,0,0-628,264.584a19.266,19.266,0,0,0-2.234-7.666,71.352,71.352,0,0,0-4.959-8.61c-1.9-2.891-3.8-5.481-5.082-7.153-1.453-1.9-2.453-3.128-2.593-3.288a1.519,1.519,0,0,0-1.266-.675,1.523,1.523,0,0,0-1.266.675c-.14.16-1.14,1.381-2.593,3.288-1.266,1.672-3.178,4.271-5.082,7.153a71.344,71.344,0,0,0-4.959,8.61,19.263,19.263,0,0,0-2.235,7.666,16.53,16.53,0,0,0,16.134,16.276Zm1-9.767a8.225,8.225,0,0,0,5.172-7.534,1.9,1.9,0,0,1,1.9-1.9,1.9,1.9,0,0,1,1.9,1.9,12.023,12.023,0,0,1-7.518,11.047,2,2,0,0,1-.725.143,1.9,1.9,0,0,1-1.865-1.529,1.894,1.894,0,0,1,1.14-2.126Zm-20.97,7.809a9.672,9.672,0,0,0,4.9-1.311,19.342,19.342,0,0,1-2.677-4.442,4.263,4.263,0,0,1-2.22.591,4.252,4.252,0,0,1-2.9-1.067l-1.2-1.092a2.61,2.61,0,0,0-1.778-.686,2.656,2.656,0,0,0-1.932.835,2.586,2.586,0,0,0-.686,1.863,2.586,2.586,0,0,0,.837,1.8l1.2,1.092a9.539,9.539,0,0,0,6.454,2.426Zm46.8-6.913a2.645,2.645,0,0,0-3.632-.224l-1.476,1.33a4.266,4.266,0,0,1-2.89,1.073,4.317,4.317,0,0,1-1.422-.232,19.572,19.572,0,0,1-2.923,4.38,9.7,9.7,0,0,0,4.371,1.02,9.474,9.474,0,0,0,6.443-2.426l1.467-1.328a2.569,2.569,0,0,0,.061-3.593Zm-5.239,13.783a2.664,2.664,0,0,0-1.543.476l-1.271,1a4.31,4.31,0,0,1-4.883,0l-.82-.641a9.605,9.605,0,0,0-11.388,0l-.171.137a4.27,4.27,0,0,1-4.889,0,9.3,9.3,0,0,0-5.7-1.868,9.307,9.307,0,0,0-5.693,1.868l-.233.19a4.06,4.06,0,0,1-2.444.759,4.044,4.044,0,0,1-2.439-.759l-1.045-.821a2.532,2.532,0,0,0-1.618-.555,2.624,2.624,0,0,0-2.069,1,2.562,2.562,0,0,0-.54,1.9,2.6,2.6,0,0,0,.983,1.734l1.044.815a9.252,9.252,0,0,0,5.692,1.871,9.254,9.254,0,0,0,5.7-1.871l.238-.179a4.265,4.265,0,0,1,4.852,0,9.627,9.627,0,0,0,11.391,0l.173-.146a4.271,4.271,0,0,1,4.883,0l.826.636a9.588,9.588,0,0,0,11.388,0l1.277-.989a2.573,2.573,0,0,0,.353-3.582,2.632,2.632,0,0,0-2.055-.975Zm0,0" transform="translate(672.6 -237.192)"/></g></g></g></svg>