<svg xmlns="http://www.w3.org/2000/svg" xmlns:xlink="http://www.w3.org/1999/xlink" width="98" height="98" viewBox="0 0 98 98"><defs><style>.a{fill:none;stroke:#707070;}.b{clip-path:url(#a);}.c{fill:url(#b);}.d{fill:#fff;}</style><clipPath id="a"><rect class="a" width="98" height="98" transform="translate(414 1592)"/></clipPath><linearGradient id="b" x1="0.5" x2="0.5" y2="1" gradientUnits="objectBoundingBox"><stop offset="0" stop-color="#0a90f5"/><stop offset="1" stop-color="#33b4f1"/></linearGradient></defs><g class="b" transform="translate(-414 -1592)"><rect class="c" width="96" height="96" rx="16" transform="translate(415 1593)"/><g transform="translate(1045.977 1325.802)"><path class="d" d="M-582.98,287.2a28,28,0,0,0-28,28,28,28,0,0,0,28,28,28,28,0,0,0,28-28,28,28,0,0,0-28-28m-1.338,5.32h3.561V299.5h-3.561Zm-10.648,13.068-4.942-4.942,2.517-2.517,4.942,4.942Zm1.758-10.508,3.22-1.5,2.954,6.331-3.225,1.5Zm10.718,40.53a5.6,5.6,0,0,1-5.6-5.6,5.594,5.594,0,0,1,3.679-5.256V308.766h3.559v15.879a5.6,5.6,0,0,1,3.97,5.362,5.6,5.6,0,0,1-5.605,5.6m4.172-35.708,2.954-6.331,3.223,1.5-2.948,6.334Zm7.823,5.687-2.517-2.517,4.942-4.942,2.517,2.517Zm0,0" transform="translate(0)"/></g></g></svg>