<svg xmlns="http://www.w3.org/2000/svg" xmlns:xlink="http://www.w3.org/1999/xlink" width="98" height="98" viewBox="0 0 98 98"><defs><style>.a{fill:none;stroke:#707070;}.b{clip-path:url(#a);}.c{fill:url(#b);}.d{fill:#fff;}</style><clipPath id="a"><rect class="a" width="98" height="98" transform="translate(414 2212)"/></clipPath><linearGradient id="b" x1="0.5" x2="0.5" y2="1" gradientUnits="objectBoundingBox"><stop offset="0" stop-color="#1fc5ba"/><stop offset="1" stop-color="#1cd2bc"/></linearGradient></defs><g class="b" transform="translate(-414 -2212)"><rect class="c" width="96" height="96" rx="16" transform="translate(415 2213)"/><g transform="translate(1061.217 1855.083)"><path class="d" d="M-614.574,385.3h21.294a3.708,3.708,0,0,0,3.725-3.691,3.708,3.708,0,0,0-3.725-3.691h-21.294a3.71,3.71,0,0,0-3.725,3.691,3.71,3.71,0,0,0,3.725,3.691Z" transform="translate(5.368)"/><path class="d" d="M-610.582,390.223c0-.977.088-2.5.136-3.476h-.091c-.409.886-.863,1.817-1.34,2.726l-2.612,4.177h3.907Z" transform="translate(12.496 15.846)"/><path class="d" d="M-578.27,378.993h-3.2v4.2a2.606,2.606,0,0,1-2.636,2.579h-28.914a2.607,2.607,0,0,1-2.633-2.579v-4.2h-2.516a3.024,3.024,0,0,0-3.053,2.991v46.963a3.024,3.024,0,0,0,3.053,2.991h39.895a3.024,3.024,0,0,0,3.053-2.991V381.984A3.027,3.027,0,0,0-578.27,378.993Zm-27,28.761,6.3-10.022h4.018v9.756h2.01v2.5h-2.01v4.295h-3.127v-4.295h-7.194Zm21.329,16.778H-612.5a1.386,1.386,0,0,1-1.4-1.374,1.386,1.386,0,0,1,1.4-1.371h28.557a1.388,1.388,0,0,1,1.4,1.371A1.388,1.388,0,0,1-583.939,424.532Z" transform="translate(0 1.979)"/></g></g></svg>