<svg xmlns="http://www.w3.org/2000/svg" xmlns:xlink="http://www.w3.org/1999/xlink" width="98" height="98" viewBox="0 0 98 98"><defs><style>.a{fill:none;stroke:#707070;}.b{clip-path:url(#a);}.c{fill:url(#b);}.d{fill:#fff;}</style><clipPath id="a"><rect class="a" width="98" height="98" transform="translate(589 1592)"/></clipPath><linearGradient id="b" x1="0.5" x2="0.5" y2="1" gradientUnits="objectBoundingBox"><stop offset="0" stop-color="#1fc5ba"/><stop offset="1" stop-color="#1cd2bc"/></linearGradient></defs><g class="b" transform="translate(-589 -1592)"><rect class="c" width="96" height="96" rx="16" transform="translate(590 1593)"/><path class="d" d="M-551.814,299.456V293.9h-16.8a2.787,2.787,0,0,1-2.8-2.777,2.787,2.787,0,0,1,2.8-2.777h39.2a2.789,2.789,0,0,1,2.8,2.777,2.789,2.789,0,0,1-2.8,2.777h-16.8v5.553h2.8a2.788,2.788,0,0,1,2.8,2.779v8.33h3.278A8.407,8.407,0,0,1-528,305.131a8.351,8.351,0,0,1,6.982,8.211V330A8.349,8.349,0,0,1-528,338.229a8.408,8.408,0,0,1-9.342-5.448h-23.354a8.409,8.409,0,0,1-9.342,5.434A8.354,8.354,0,0,1-577.016,330V313.342a8.353,8.353,0,0,1,6.982-8.224,8.407,8.407,0,0,1,9.342,5.448h3.276v-8.33a2.79,2.79,0,0,1,2.8-2.779Z" transform="translate(1187.016 1327.651)"/></g></svg>