<svg xmlns="http://www.w3.org/2000/svg" xmlns:xlink="http://www.w3.org/1999/xlink" width="98" height="98" viewBox="0 0 98 98"><defs><style>.a{fill:none;stroke:#707070;}.b{clip-path:url(#a);}.c{fill:url(#b);}.d{fill:#fff;}</style><clipPath id="a"><rect class="a" width="98" height="98" transform="translate(414 1284)"/></clipPath><linearGradient id="b" x1="0.5" x2="0.5" y2="1" gradientUnits="objectBoundingBox"><stop offset="0" stop-color="#8c92f9"/><stop offset="1" stop-color="#b6bdfd"/></linearGradient></defs><g class="b" transform="translate(-414 -1284)"><rect class="c" width="96" height="96" rx="16" transform="translate(415 1285)"/><path class="d" d="M-469.69,239.317a28.033,28.033,0,0,0-34,10.3,28.025,28.025,0,0,0,3.472,35.367,27.812,27.812,0,0,0,19.8,8.2,28.009,28.009,0,0,0,27.47-22.542A28.034,28.034,0,0,0-469.69,239.317Zm-.084,39.512a15.714,15.714,0,0,1-20.974,0v.028A15.443,15.443,0,0,1-495.761,269h8.2l1.848-2.744,5.488,7.981,4.984-9.129,1.848,3.892h8.6A15.146,15.146,0,0,1-469.774,278.828Zm-1.792-11.789-3.668-7.785-5.488,10.333-4.984-7.617-3.416,5.069h-6.693c.224-5.32,4.7-11.229,14.449-19.154l1.092-.9,1.092.9c9.773,7.925,14.225,13.833,14.449,19.154Z" transform="translate(943.406 1067.81)"/></g></svg>