<svg xmlns="http://www.w3.org/2000/svg" xmlns:xlink="http://www.w3.org/1999/xlink" width="98" height="98" viewBox="0 0 98 98"><defs><style>.a{fill:none;stroke:#707070;}.b{clip-path:url(#a);}.c{fill:url(#b);}.d{fill:#fff;}</style><clipPath id="a"><rect class="a" width="98" height="98" transform="translate(414 484)"/></clipPath><linearGradient id="b" x1="0.5" x2="0.5" y2="1" gradientUnits="objectBoundingBox"><stop offset="0" stop-color="#1fc5ba"/><stop offset="1" stop-color="#1cd2bc"/></linearGradient></defs><g class="b" transform="translate(-414 -484)"><rect class="c" width="96" height="96" rx="16" transform="translate(415 485)"/><g transform="translate(1109.601 334.468)"><path class="d" d="M-622.333,216.993V198.531a7.421,7.421,0,0,0-7.462-7.38h-14.93v-3.691h-3.732v3.691h-7.476v-11.08h-14.935v18.46a7.424,7.424,0,0,0,7.465,7.383h14.929V209.6h3.732v-3.691h7.465v11.08ZM-674.6,174.532h22.4v3.691h-22.4ZM-641,218.84h22.4v3.691H-641Zm0,0" transform="translate(0 0)"/></g></g></svg>