<svg xmlns="http://www.w3.org/2000/svg" xmlns:xlink="http://www.w3.org/1999/xlink" width="98" height="98" viewBox="0 0 98 98"><defs><style>.a{fill:none;stroke:#707070;}.b{clip-path:url(#a);}.c{fill:url(#b);}.d{fill:#fff;}</style><clipPath id="a"><rect class="a" width="98" height="98" transform="translate(238 2522)"/></clipPath><linearGradient id="b" x1="0.5" x2="0.5" y2="1" gradientUnits="objectBoundingBox"><stop offset="0" stop-color="#f7b1a5"/><stop offset="1" stop-color="#fd6edc"/></linearGradient></defs><g class="b" transform="translate(-238 -2522)"><rect class="c" width="96" height="96" rx="16" transform="translate(239 2523)"/><g transform="translate(907.326 2127.722)"><path class="d" d="M-602.233,419.279q1.657,1.491,2.638,2.478a16.918,16.918,0,0,1,1.5,1.672,3.509,3.509,0,0,1,.644,1.162,3.37,3.37,0,0,1,.124.837v.955H-606.4a1.488,1.488,0,0,1-1.073-.448,4,4,0,0,1-.765-1.044,5.51,5.51,0,0,1-.46-1.224,4.378,4.378,0,0,1-.155-.986v-7.4h.184a3.728,3.728,0,0,1,1.013.148,4.908,4.908,0,0,1,1.2.568c.449.277,1.013.678,1.686,1.193s1.525,1.215,2.546,2.092Zm-10.488,3.461a9,9,0,0,0,.368,2.478,7.623,7.623,0,0,0,1.165,2.388,6.5,6.5,0,0,0,2.025,1.82,5.6,5.6,0,0,0,2.882.717h8.955v33.673a6.717,6.717,0,0,1-.7,3.105,7.27,7.27,0,0,1-1.873,2.327,9.159,9.159,0,0,1-2.574,1.492,7.727,7.727,0,0,1-2.762.538h-30.176a5.993,5.993,0,0,1-2.546-.655,10.8,10.8,0,0,1-2.575-1.733,9.98,9.98,0,0,1-1.994-2.447,5.62,5.62,0,0,1-.8-2.864v-40.6a6.514,6.514,0,0,1,.581-2.6,9.235,9.235,0,0,1,1.594-2.478,9.307,9.307,0,0,1,2.3-1.879,5.3,5.3,0,0,1,2.7-.748h23.43Zm3.863,37.254a3.672,3.672,0,0,0,2.7-1.1,3.629,3.629,0,0,0,1.1-2.657,3.53,3.53,0,0,0-1.1-2.626,3.725,3.725,0,0,0-2.7-1.075h-23a3.714,3.714,0,0,0-2.7,1.075,3.522,3.522,0,0,0-1.1,2.626,3.621,3.621,0,0,0,1.1,2.657,3.662,3.662,0,0,0,2.7,1.1Zm3.8-18.626a3.63,3.63,0,0,0-1.1-2.657,3.675,3.675,0,0,0-2.7-1.106h-23a3.665,3.665,0,0,0-2.7,1.106,3.621,3.621,0,0,0-1.1,2.657,3.526,3.526,0,0,0,1.1,2.626,3.715,3.715,0,0,0,2.7,1.075h23a3.726,3.726,0,0,0,2.7-1.075,3.535,3.535,0,0,0,1.1-2.626Zm0,0" transform="translate(0)"/></g></g></svg>