<svg xmlns="http://www.w3.org/2000/svg" xmlns:xlink="http://www.w3.org/1999/xlink" width="98" height="98" viewBox="0 0 98 98"><defs><style>.a{fill:none;stroke:#707070;}.b{clip-path:url(#a);}.c{fill:url(#b);}.d{fill:#fff;}</style><clipPath id="a"><rect class="a" width="98" height="98" transform="translate(238 1284)"/></clipPath><linearGradient id="b" x1="0.5" x2="0.5" y2="1" gradientUnits="objectBoundingBox"><stop offset="0" stop-color="#1fc5ba"/><stop offset="1" stop-color="#1cd2bc"/></linearGradient></defs><g class="b" transform="translate(-238 -1284)"><rect class="c" width="96" height="96" rx="16" transform="translate(239 1285)"/><g transform="translate(797.21 1067.8)"><path class="d" d="M-487.972,260.038a23.95,23.95,0,0,0-5.259-7.968l-13.287-13.327a5.2,5.2,0,0,0-3.692-1.543,5.2,5.2,0,0,0-3.692,1.543l-13.287,13.327a23.95,23.95,0,0,0-5.259,7.968,24.014,24.014,0,0,0-1.762,9.09,24.014,24.014,0,0,0,1.762,9.09,23.67,23.67,0,0,0,5.259,7.968,23.73,23.73,0,0,0,7.944,5.275,24.192,24.192,0,0,0,9.035,1.739,24.085,24.085,0,0,0,9.035-1.739,23.732,23.732,0,0,0,7.944-5.275,23.67,23.67,0,0,0,5.259-7.968,24.014,24.014,0,0,0,1.762-9.09A24.014,24.014,0,0,0-487.972,260.038Zm-22.489,25.279a13.387,13.387,0,0,1-12.979-13.327,11.478,11.478,0,0,1,.2-2.581c0-.168.168-.168.336-.168a8.453,8.453,0,0,0,4.252,1.038c5.622,0,5.287-3.928,12.112-5.3,2.405-.533,5.454.168,8.2,1.375a.165.165,0,0,1,.168.168,14.494,14.494,0,0,1,1.2,5.471A13.36,13.36,0,0,1-510.462,285.316Z" transform="translate(0 0)"/></g></g></svg>