<svg xmlns="http://www.w3.org/2000/svg" xmlns:xlink="http://www.w3.org/1999/xlink" width="98" height="98" viewBox="0 0 98 98"><defs><style>.a{fill:none;stroke:#707070;}.b{clip-path:url(#a);}.c{fill:url(#b);}.d{fill:#fff;}</style><clipPath id="a"><rect class="a" width="98" height="98" transform="translate(589 1102)"/></clipPath><linearGradient id="b" x1="0.5" x2="0.5" y2="1" gradientUnits="objectBoundingBox"><stop offset="0" stop-color="#8c92f9"/><stop offset="1" stop-color="#b6bdfd"/></linearGradient></defs><g class="b" transform="translate(-589 -1102)"><rect class="c" width="96" height="96" rx="16" transform="translate(590 1103)"/><path class="d" d="M-543.235,260.038a24.39,24.39,0,0,0-5.262-7.968l-13.322-13.327a5.2,5.2,0,0,0-3.694-1.543,5.253,5.253,0,0,0-3.695,1.543L-582.5,252.07a23.951,23.951,0,0,0-5.262,7.968,24.527,24.527,0,0,0-1.735,9.09,24.527,24.527,0,0,0,1.735,9.09,23.671,23.671,0,0,0,5.262,7.968,24.026,24.026,0,0,0,7.949,5.275,24.325,24.325,0,0,0,9.04,1.739,24.363,24.363,0,0,0,9.068-1.739,24.32,24.32,0,0,0,7.949-5.275,24.1,24.1,0,0,0,5.262-7.968,24.527,24.527,0,0,0,1.735-9.09A24.528,24.528,0,0,0-543.235,260.038ZM-553,267.669l-7.557,7.575a1.636,1.636,0,0,1-2.323,0l-6.409-6.425-6.409,6.425a1.6,1.6,0,0,1-2.3,0,1.646,1.646,0,0,1,0-2.329l7.557-7.575a1.636,1.636,0,0,1,2.323,0l6.381,6.425,6.409-6.425a1.636,1.636,0,0,1,2.323,0A1.645,1.645,0,0,1-553,267.669Z" transform="translate(1203.5 885.8)"/></g></svg>