<svg xmlns="http://www.w3.org/2000/svg" xmlns:xlink="http://www.w3.org/1999/xlink" width="98" height="98" viewBox="0 0 98 98"><defs><style>.a{fill:none;stroke:#707070;}.b{clip-path:url(#a);}.c{fill:url(#b);}.d{fill:#fff;}</style><clipPath id="a"><rect class="a" width="98" height="98" transform="translate(238 1102)"/></clipPath><linearGradient id="b" x1="0.5" x2="0.5" y2="1" gradientUnits="objectBoundingBox"><stop offset="0" stop-color="#0a90f5"/><stop offset="1" stop-color="#33b4f1"/></linearGradient></defs><g class="b" transform="translate(-238 -1102)"><rect class="c" width="96" height="96" rx="16" transform="translate(239 1103)"/><g transform="translate(904.82 885.812)"><g transform="translate(-642.82 263.992)"><path class="d" d="M-592.82,249.578V271.1a5.227,5.227,0,0,1-5.207,5.221h-39.587a5.21,5.21,0,0,1-5.207-5.221V249.578a2.461,2.461,0,0,1,2.452-2.458,2.461,2.461,0,0,1,2.452,2.458V271.1a.306.306,0,0,0,.3.3h39.587a.306.306,0,0,0,.3-.3V249.578a2.461,2.461,0,0,1,2.452-2.458A2.461,2.461,0,0,1-592.82,249.578Z" transform="translate(642.82 -247.12)"/></g><g transform="translate(-636.462 278.221)"><path class="d" d="M-603.257,255.279a2.341,2.341,0,0,1-1.844,2.652l-1.651.3a32.385,32.385,0,0,1-5.917.635,52.234,52.234,0,0,1-9.826-1.188c-8.862-1.713-14.807.414-15.055.5a1.985,1.985,0,0,1-1.679-.083,2.213,2.213,0,0,1-1.183-1.436,2.383,2.383,0,0,1,1.349-2.928,23.485,23.485,0,0,1,4.9-1.16,39.507,39.507,0,0,1,12.468.442c8.257,1.6,10.514,1.215,14.2.525l1.679-.3a2.14,2.14,0,0,1,1.624.414A2.363,2.363,0,0,1-603.257,255.279Z" transform="translate(640.518 -252.271)"/></g><g transform="translate(-631.619 237.189)"><path class="d" d="M-626.689,261.479a7.943,7.943,0,0,1-7.933-7.936c0-2.381,1.262-4.356,2.445-6.019l4.828-6.784a1.084,1.084,0,0,1,.906-.453,1.077,1.077,0,0,1,.884.492l4.174,6.442c.127.2.257.395.387.588.166.254.337.514.505.773a13.6,13.6,0,0,1,1.2,2.237,7.2,7.2,0,0,1,.544,2.724,7.946,7.946,0,0,1-7.936,7.936Z" transform="translate(646 -231.729)"/><path class="d" d="M-633.915,249.744a4.83,4.83,0,0,1-4.826-4.823,6.222,6.222,0,0,1,1.428-3.572l1.555-2.185c.356-.5.71-1,1.066-1.5l.014-.019a1.08,1.08,0,0,1,.906-.456,1.079,1.079,0,0,1,.884.494l2.279,3.516c.072.108.141.215.21.32.094.144.188.284.279.428a5.4,5.4,0,0,1,1.028,2.972,4.827,4.827,0,0,1-4.823,4.823Z" transform="translate(638.741 -237.189)"/></g></g></g></svg>