<svg xmlns="http://www.w3.org/2000/svg" xmlns:xlink="http://www.w3.org/1999/xlink" width="98" height="98" viewBox="0 0 98 98"><defs><style>.a{fill:none;stroke:#707070;}.b{clip-path:url(#a);}.c{fill:url(#b);}.d{fill:#fff;}</style><clipPath id="a"><rect class="a" width="98" height="98" transform="translate(63 792)"/></clipPath><linearGradient id="b" x1="0.5" x2="0.5" y2="1" gradientUnits="objectBoundingBox"><stop offset="0" stop-color="#f7b1a5"/><stop offset="1" stop-color="#fd6edc"/></linearGradient></defs><g class="b" transform="translate(-63 -792)"><rect class="c" width="96" height="96" rx="16" transform="translate(64 793)"/><g transform="translate(727.75 644.164)"><path class="d" d="M-629.382,218.209h-3.628V201.438a17.245,17.245,0,0,1,17.26-17.232,17.245,17.245,0,0,1,17.258,17.232v16.771Zm14.883-27.058-8.515,14h6.81l-1.7,10.5,8.513-14H-616.2Zm13.055-15.38a1.679,1.679,0,0,1,.612,2.289l-3.06,5.312-2.892-1.673,3.058-5.312a1.666,1.666,0,0,1,1.01-.779,1.665,1.665,0,0,1,1.263.162Zm-14.31-3.934a1.749,1.749,0,0,1,1.81,1.688v6.021h-3.62v-6.026a1.748,1.748,0,0,1,1.81-1.683Zm-14.3,3.934a1.666,1.666,0,0,1,1.267-.167,1.663,1.663,0,0,1,1.013.779l3.063,5.312-2.892,1.673-3.065-5.315a1.673,1.673,0,0,1,.612-2.282Zm-10.47,10.5a1.662,1.662,0,0,1,1.012-.779,1.667,1.667,0,0,1,1.268.17l5.3,3.071-1.67,2.9-5.3-3.076a1.673,1.673,0,0,1-.612-2.284Zm49.55,0a1.68,1.68,0,0,1-.612,2.289l-5.3,3.066-1.667-2.9,5.3-3.071a1.669,1.669,0,0,1,2.275.6l0,.01Zm-47.948,31.939h46.351a1.817,1.817,0,0,1,1.815,1.812,1.817,1.817,0,0,1-1.815,1.815h-46.351a1.817,1.817,0,0,1-1.815-1.815,1.811,1.811,0,0,1,.53-1.283,1.818,1.818,0,0,1,1.285-.529Zm0,0" transform="translate(0 0)"/></g></g></svg>