<svg xmlns="http://www.w3.org/2000/svg" xmlns:xlink="http://www.w3.org/1999/xlink" width="98" height="98" viewBox="0 0 98 98"><defs><style>.a{fill:none;stroke:#707070;}.b{clip-path:url(#a);}.c{fill:url(#b);}.d{fill:#fff;}</style><clipPath id="a"><rect class="a" width="98" height="98" transform="translate(589 2522)"/></clipPath><linearGradient id="b" x1="0.5" x2="0.5" y2="1" gradientUnits="objectBoundingBox"><stop offset="0" stop-color="#1fc5ba"/><stop offset="1" stop-color="#1cd2bc"/></linearGradient></defs><g class="b" transform="translate(-589 -2522)"><rect class="c" width="96" height="96" rx="16" transform="translate(590 2523)"/><path class="d" d="M-570.74,415.247a3.621,3.621,0,0,1,2.654,1.106,3.623,3.623,0,0,1,1.106,2.657v18.626a3.622,3.622,0,0,1-1.106,2.657,3.618,3.618,0,0,1-2.654,1.1h-18.629a3.624,3.624,0,0,1-2.657-1.1,3.619,3.619,0,0,1-1.1-2.657V419.01a3.62,3.62,0,0,1,1.1-2.657,3.626,3.626,0,0,1,2.657-1.106Zm29.91,0a3.523,3.523,0,0,1,2.626,1.106,3.671,3.671,0,0,1,1.075,2.657v18.626a3.671,3.671,0,0,1-1.075,2.657,3.521,3.521,0,0,1-2.626,1.1h-18.687a3.625,3.625,0,0,1-2.657-1.1,3.62,3.62,0,0,1-1.1-2.657V419.01a3.62,3.62,0,0,1,1.1-2.657,3.627,3.627,0,0,1,2.657-1.106ZM-570.74,445.1a3.621,3.621,0,0,1,2.654,1.106,3.622,3.622,0,0,1,1.106,2.657v18.684a3.519,3.519,0,0,1-1.106,2.626,3.669,3.669,0,0,1-2.654,1.075h-18.629a3.675,3.675,0,0,1-2.657-1.075,3.516,3.516,0,0,1-1.1-2.626V448.861a3.619,3.619,0,0,1,1.1-2.657,3.627,3.627,0,0,1,2.657-1.106Zm29.91,0A3.524,3.524,0,0,1-538.2,446.2a3.671,3.671,0,0,1,1.075,2.657v18.684a3.565,3.565,0,0,1-1.075,2.626,3.57,3.57,0,0,1-2.626,1.075h-18.687a3.676,3.676,0,0,1-2.657-1.075,3.517,3.517,0,0,1-1.1-2.626V448.861a3.62,3.62,0,0,1,1.1-2.657,3.627,3.627,0,0,1,2.657-1.106Zm0,0" transform="translate(1203.129 2127.753)"/></g></svg>