<svg xmlns="http://www.w3.org/2000/svg" xmlns:xlink="http://www.w3.org/1999/xlink" width="98" height="98" viewBox="0 0 98 98"><defs><style>.a{fill:none;stroke:#707070;}.b{clip-path:url(#a);}.c{fill:url(#b);}.d{fill:#fff;}</style><clipPath id="a"><rect class="a" width="98" height="98" transform="translate(238 302)"/></clipPath><linearGradient id="b" x1="0.067" x2="0.898" y2="1" gradientUnits="objectBoundingBox"><stop offset="0" stop-color="#1fc5ba"/><stop offset="1" stop-color="#1cd2bc"/></linearGradient></defs><g class="b" transform="translate(-238 -302)"><rect class="c" width="96" height="96" rx="16" transform="translate(239 303)"/><g transform="translate(1238.992 -602.477)"><path class="d" d="M-941.806,969.489l-7.512,2.555a7.65,7.65,0,0,1-5.488-.216l-6.37-2.741a13.346,13.346,0,0,0-12.051.789l-6.465,3.853,2.89,4.748,6.465-3.848a7.657,7.657,0,0,1,6.924-.456l6.373,2.74a13.276,13.276,0,0,0,9.542.371l7.51-2.555a7.646,7.646,0,0,1,5.482.208l7.655,3.283,2.229-5.088-7.655-3.28a13.312,13.312,0,0,0-9.529-.363Zm15.616-24.109a27.657,27.657,0,0,0-6-8.8,27.8,27.8,0,0,0-8.9-5.93,28.047,28.047,0,0,0-10.9-2.173,28.17,28.17,0,0,0-10.9,2.173,28.047,28.047,0,0,0-8.9,5.93,27.579,27.579,0,0,0-6,8.8,27.178,27.178,0,0,0-2.2,10.777,27.854,27.854,0,0,0,.437,4.908l.409,2.284h9.089a2.783,2.783,0,0,0,2.8-2.771,2.783,2.783,0,0,0-2.8-2.771h-4.273c-.045-.548-.062-1.1-.062-1.644a21.853,21.853,0,0,1,3.618-12.058l1.954,1.935a2.823,2.823,0,0,0,3.962,0,2.742,2.742,0,0,0,0-3.917l-2.285-2.259a22.449,22.449,0,0,1,12.258-5.658,2.632,2.632,0,0,0-.034.4v3.325a2.785,2.785,0,0,0,2.8,2.771,2.783,2.783,0,0,0,2.8-2.771V934.6a3.154,3.154,0,0,0-.031-.432,22.265,22.265,0,0,1,19.751,21.986c0,.548-.02,1.1-.061,1.644h-4.273a2.783,2.783,0,0,0-2.8,2.771,2.785,2.785,0,0,0,2.8,2.771h9.086l.411-2.287a27.313,27.313,0,0,0,.437-4.908,27.1,27.1,0,0,0-2.2-10.768Zm0,0" transform="translate(0 0)"/><path class="d" d="M-953.3,935.415a2.814,2.814,0,0,0-3.982,0l-8.62,8.62a5.4,5.4,0,0,0-1.008-.1,5.086,5.086,0,0,0-5.088,5.088,5.089,5.089,0,0,0,5.088,5.091,5.091,5.091,0,0,0,5.091-5.091,5.423,5.423,0,0,0-.1-1.008l8.62-8.62a2.809,2.809,0,0,0,0-3.982Zm0,0" transform="translate(14.334 10.633)"/></g></g></svg>