<svg xmlns="http://www.w3.org/2000/svg" xmlns:xlink="http://www.w3.org/1999/xlink" width="98" height="98" viewBox="0 0 98 98"><defs><style>.a{fill:none;stroke:#707070;}.b{clip-path:url(#a);}.c{fill:url(#b);}.d{fill:#fff;}</style><clipPath id="a"><rect class="a" width="98" height="98" transform="translate(589 1284)"/></clipPath><linearGradient id="b" x1="0.5" x2="0.5" y2="1" gradientUnits="objectBoundingBox"><stop offset="0" stop-color="#f7b1a5"/><stop offset="1" stop-color="#fd6edc"/></linearGradient></defs><g class="b" transform="translate(-589 -1284)"><rect class="c" width="96" height="96" rx="16" transform="translate(590 1285)"/><path class="d" d="M-467.814,237.189h37.332a9.333,9.333,0,0,1,6.6,2.733,9.336,9.336,0,0,1,2.736,6.6v28a9.336,9.336,0,0,1-2.736,6.6,9.324,9.324,0,0,1-6.6,2.736h-37.332a9.325,9.325,0,0,1-6.6-2.736,9.333,9.333,0,0,1-2.733-6.6v-28a9.332,9.332,0,0,1,9.332-9.332Zm26.2,18.99-9.9,9.9-6.6-6.6a2.325,2.325,0,0,0-1.649-.686,2.325,2.325,0,0,0-1.649.686l-8.252,8.252a2.333,2.333,0,0,0,.028,3.27,2.333,2.333,0,0,0,3.27.028l6.6-6.6,6.569,6.569a2.32,2.32,0,0,0,1.658.717,2.324,2.324,0,0,0,1.672-.686l11.55-11.55,3.077,3.077a2.327,2.327,0,0,0,2.444.543,2.331,2.331,0,0,0,1.529-1.982l.946-10.4a2.331,2.331,0,0,0-.675-1.859,2.334,2.334,0,0,0-1.859-.675l-10.4.944a2.339,2.339,0,0,0-1.985,1.529,2.336,2.336,0,0,0,.546,2.447Zm-26.2,32.343h37.332a2.337,2.337,0,0,1,2.335,2.335,2.333,2.333,0,0,1-2.335,2.332h-37.332a2.333,2.333,0,0,1-2.332-2.332,2.337,2.337,0,0,1,2.332-2.335Zm0,0" transform="translate(1087.146 1067.811)"/></g></svg>