<svg xmlns="http://www.w3.org/2000/svg" xmlns:xlink="http://www.w3.org/1999/xlink" width="98" height="98" viewBox="0 0 98 98"><defs><style>.a{fill:none;stroke:#707070;}.b{clip-path:url(#a);}.c{fill:url(#b);}.d{fill:#fff;}</style><clipPath id="a"><rect class="a" width="98" height="98" transform="translate(63 1592)"/></clipPath><linearGradient id="b" x1="0.5" x2="0.5" y2="1" gradientUnits="objectBoundingBox"><stop offset="0" stop-color="#8c92f9"/><stop offset="1" stop-color="#b6bdfd"/></linearGradient></defs><g class="b" transform="translate(-63 -1592)"><rect class="c" width="96" height="96" rx="16" transform="translate(64 1593)"/><g transform="translate(756.433 1325.635)"><path class="d" d="M-617.134,335.782a2.343,2.343,0,0,0-1.7-.729,2.345,2.345,0,0,0-1.7.729,4.8,4.8,0,0,1-1.474,1.031V290.287a1.944,1.944,0,0,0-1.958-1.922,1.943,1.943,0,0,0-1.956,1.922v4.2h-6.1a1.943,1.943,0,0,0-1.956,1.921,1.941,1.941,0,0,0,1.956,1.919h6.1v6.54h-6.1a1.943,1.943,0,0,0-1.956,1.921,1.943,1.943,0,0,0,1.956,1.919h6.1v6.54h-6.1a1.943,1.943,0,0,0-1.956,1.919,1.943,1.943,0,0,0,1.956,1.921h6.1v6.54h-6.1a1.943,1.943,0,0,0-1.956,1.919,1.943,1.943,0,0,0,1.956,1.921h6.1v7.373a4.949,4.949,0,0,1-1.446-1,9.329,9.329,0,0,0-13.642,0,4.682,4.682,0,0,1-6.836,0,9.329,9.329,0,0,0-13.642,0l-.227.137a6.648,6.648,0,0,1-7.033-.5,2.338,2.338,0,0,0-2.978.363,2.612,2.612,0,0,0,0,3.563,9.334,9.334,0,0,0,13.642,0,4.679,4.679,0,0,1,6.833,0,9.334,9.334,0,0,0,13.642,0,4.682,4.682,0,0,1,6.836,0,9.333,9.333,0,0,0,13.642,0,2.685,2.685,0,0,0,0-3.62Zm0,0"/><path class="d" d="M-658.834,291.331l-.056.059-.056-.059S-669.1,303.087-669.1,312.616a10.279,10.279,0,0,0,10.158,10.355h.113a10.241,10.241,0,0,0,10.158-10.355c0-9.529-10.158-21.285-10.158-21.285Zm0,0" transform="translate(5.964 5.278)"/></g></g></svg>