<svg xmlns="http://www.w3.org/2000/svg" xmlns:xlink="http://www.w3.org/1999/xlink" width="98" height="98" viewBox="0 0 98 98"><defs><style>.a{fill:none;stroke:#707070;}.b{clip-path:url(#a);}.c{fill:url(#b);}.d{fill:#fff;}</style><clipPath id="a"><rect class="a" width="98" height="98" transform="translate(63 1902)"/></clipPath><linearGradient id="b" x1="0.5" x2="0.5" y2="1" gradientUnits="objectBoundingBox"><stop offset="0" stop-color="#0a90f5"/><stop offset="1" stop-color="#33b4f1"/></linearGradient></defs><g class="b" transform="translate(-63 -1902)"><rect class="c" width="96" height="96" rx="16" transform="translate(64 1903)"/><path class="d" d="M-620.266,353.074a4.285,4.285,0,0,0-1.345-1.848c-1.962,1.26-1.962,4-2.438,6.133l-.2.2c-3.307,0-6.725-.672-10.144-.084-1.653.2-2.522,2.24-4.287,2.24-2.438.084-5.072.476-7.23-.868a3.934,3.934,0,0,1-1.065-4.48c.5-1.092-1.065-1.764-.981-2.828a19.874,19.874,0,0,0-.084-3.416c-.112-1.064-1.261-1.26-1.961-1.764v-.2a41.826,41.826,0,0,1,.112-4.956c.2-.784.672-1.96,1.541-1.568a11.45,11.45,0,0,0,3.615.784,3.1,3.1,0,0,0,2.634-2.828,2.232,2.232,0,0,0-2.326-2.24c-1.569-.2-2.83.672-4.2,1.372-1.261-.2-2.242-1.288-3.5-1.372-1.653,0-2.943,1.064-4.483,1.372-1.569-.5-3.026-1.456-4.68-.9-1.569,1.092-1.289,3.92.589,4.48,1.933.7,3.783-.28,5.436-.952.5.588,1.093,1.064,1.177,1.848a23.675,23.675,0,0,1,.2,4.676v.084a11.924,11.924,0,0,0-1.765.98c-.757,1.456-.28,3.22-.364,4.788-.2.476-.588.952-.784,1.456,0,.98.476,1.848.392,2.828,0,.952-.112,2.324-1.177,2.828-1.962.868-4.2,1.148-5.941,2.436a13.839,13.839,0,0,0-4.876,8.261,10.686,10.686,0,0,0-1.681.7,24.669,24.669,0,0,1-.364,3.78,10.021,10.021,0,0,0,4.876.784c-.589,1.064-1.289,2.156-1.878,3.22-.56,1.064-1.149,2.044-1.737,3.108-.392.7-.9,1.372-1.261,2.156a6.107,6.107,0,0,0-.5,2.912,6.239,6.239,0,0,0,.7,2.352,5.691,5.691,0,0,0,4.175,2.716,5.888,5.888,0,0,0,3.811-.868,5.786,5.786,0,0,0,2.438-4.284,6.593,6.593,0,0,0-1.261-4.2c-.393-.784-.9-1.652-1.373-2.436-.5-.784-.981-1.652-1.457-2.52a14.588,14.588,0,0,0-1.289-2.24,14.851,14.851,0,0,0,4.119-.9,5.514,5.514,0,0,0,.2-3.3c-.392-.476-1.093-.588-1.569-.868.084-.7-.112-1.652.476-2.24a3.5,3.5,0,0,1,2.634-1.176,45.863,45.863,0,0,1,5.184.2,50.767,50.767,0,0,0,10.312-.112,18.612,18.612,0,0,1,5.576.2c1.541.392,1.849,2.632,3.5,2.828,3.615.588,7.118-.588,10.732-.476.392,1.456.588,3.108,1.541,4.4.2.476.7.476,1.177.364a4.391,4.391,0,0,0,1.373-2.324,32.891,32.891,0,0,0,.981-9.157A28.667,28.667,0,0,0-620.266,353.074ZM-669.3,385.921a11.817,11.817,0,0,0,1.653,2.324,20.538,20.538,0,0,0,2.438,1.764A4.077,4.077,0,0,1-669.3,385.921Z" transform="translate(756.977 1587.68)"/></g></svg>