<svg xmlns="http://www.w3.org/2000/svg" xmlns:xlink="http://www.w3.org/1999/xlink" width="98" height="98" viewBox="0 0 98 98"><defs><style>.a{fill:none;stroke:#707070;}.b{clip-path:url(#a);}.c{fill:url(#b);}.d{fill:#fff;}</style><clipPath id="a"><rect class="a" width="98" height="98" transform="translate(63 484)"/></clipPath><linearGradient id="b" x1="0.5" x2="0.5" y2="1" gradientUnits="objectBoundingBox"><stop offset="0" stop-color="#f7b1a5"/><stop offset="1" stop-color="#fd6edc"/></linearGradient></defs><g class="b" transform="translate(-63 -484)"><rect class="c" width="96" height="96" rx="16" transform="translate(64 485)"/><g transform="translate(972.978 -422.539)"><path class="d" d="M-883.315,936.841a3.654,3.654,0,0,0-2.593,1.069,3.661,3.661,0,0,0-1.069,2.594v22.57a3.662,3.662,0,0,0,3.691,3.514,3.662,3.662,0,0,0,3.629-3.579V940.5a3.628,3.628,0,0,0-1.064-2.594,3.643,3.643,0,0,0-2.594-1.069Zm0,0" transform="translate(0 16.833)"/><path class="d" d="M-855.407,936.873h15.72a4.743,4.743,0,0,0,3.331-1.365,4.617,4.617,0,0,0,1.377-3.288,4.626,4.626,0,0,0-1.366-3.308,4.743,4.743,0,0,0-3.343-1.373h-42.589a4.738,4.738,0,0,0-3.331,1.37,4.617,4.617,0,0,0-1.371,3.294,4.611,4.611,0,0,0,1.371,3.3,4.728,4.728,0,0,0,3.337,1.37h15.718v5.684a5.127,5.127,0,0,0,.108,1.084,12.815,12.815,0,0,0-7.536,11.64v9.57h-5.564v9.323h6.068a12.973,12.973,0,0,0,12.5,9.326,12.973,12.973,0,0,0,12.5-9.326h6.048v-9.323h-5.55v-9.57a12.785,12.785,0,0,0-7.533-11.626,5.529,5.529,0,0,0,.1-1.081Zm0,0" transform="translate(0 0)"/><path class="d" d="M-871.3,957.356h-.02v5.7a3.664,3.664,0,0,0,3.68,3.646,3.666,3.666,0,0,0,3.646-3.683V940.5a3.662,3.662,0,0,0-3.663-3.663,3.662,3.662,0,0,0-3.663,3.663v7.522h.02Zm0,0" transform="translate(28.993 16.833)"/></g></g></svg>