<svg xmlns="http://www.w3.org/2000/svg" xmlns:xlink="http://www.w3.org/1999/xlink" width="98" height="98" viewBox="0 0 98 98"><defs><style>.a{fill:none;stroke:#707070;}.b{clip-path:url(#a);}.c{fill:url(#b);}.d{fill:#fff;}</style><clipPath id="a"><rect class="a" width="98" height="98" transform="translate(589 302)"/></clipPath><linearGradient id="b" x1="0.1" y1="1" x2="1" y2="0.077" gradientUnits="objectBoundingBox"><stop offset="0" stop-color="#f7b1a5"/><stop offset="1" stop-color="#fd6edc"/></linearGradient></defs><g class="b" transform="translate(-589 -302)"><rect class="c" width="96" height="96" rx="16" transform="translate(590 303)"/><g transform="translate(613 323)"><path class="d" d="M-483.451,2081.069h0a3.663,3.663,0,0,0-3.66,3.656,3.665,3.665,0,0,0,3.654,3.663l8.658.007a3.665,3.665,0,0,0,3.662-3.657,3.66,3.66,0,0,0-3.657-3.662l-8.656-.007Z" transform="translate(496.106 -2081.069)"/><g transform="translate(12.95 5.836)"><path class="d" d="M-478.679,2087.934h0l-5.618-.006a1.252,1.252,0,0,1-1.252-1.254v-2.024a1.255,1.255,0,0,1,.369-.888,1.249,1.249,0,0,1,.885-.366h0l5.616,0a1.256,1.256,0,0,1,1.254,1.254l0,2.027a1.253,1.253,0,0,1-.366.888A1.26,1.26,0,0,1-478.679,2087.934Z" transform="translate(485.549 -2083.396)"/></g><g transform="translate(0 7.399)"><path class="d" d="M-473.857,2117.554h-.01a16.788,16.788,0,0,1-16.752-16.78,16.657,16.657,0,0,1,4.921-11.851,16.642,16.642,0,0,1,11.844-4.9h.015a16.79,16.79,0,0,1,16.755,16.778h0A16.791,16.791,0,0,1-473.857,2117.554Zm0-30.941a14.078,14.078,0,0,0-10.013,4.144,14.077,14.077,0,0,0-4.159,10.018,14.192,14.192,0,0,0,14.161,14.187h.01a14.2,14.2,0,0,0,14.176-14.164,14.191,14.191,0,0,0-14.164-14.184Zm15.473,14.184h0Z" transform="translate(490.619 -2084.019)"/></g><g transform="translate(3.77 10.865)"><path class="d" d="M-476.118,2111.517h-.01a13.012,13.012,0,0,1-12.988-13.008,12.9,12.9,0,0,1,3.815-9.188,12.918,12.918,0,0,1,9.18-3.8h.013a12.9,12.9,0,0,1,9.185,3.815,12.9,12.9,0,0,1,3.8,9.19h0a12.908,12.908,0,0,1-3.815,9.19A12.91,12.91,0,0,1-476.118,2111.517Zm0-23.488a10.417,10.417,0,0,0-7.412,3.068,10.423,10.423,0,0,0-3.078,7.412,10.5,10.5,0,0,0,10.482,10.5h.007a10.431,10.431,0,0,0,7.412-3.068,10.425,10.425,0,0,0,3.078-7.414,10.429,10.429,0,0,0-3.068-7.42,10.427,10.427,0,0,0-7.414-3.077Z" transform="translate(489.116 -2085.521)"/></g><g transform="translate(9.393 16.253)"><path class="d" d="M-479.38,2102.84h0a7.588,7.588,0,0,1-7.57-7.584,7.588,7.588,0,0,1,7.577-7.574h0a7.59,7.59,0,0,1,7.572,7.585h0A7.589,7.589,0,0,1-479.38,2102.84Zm0-12.988a5.415,5.415,0,0,0-5.408,5.4,5.414,5.414,0,0,0,5.4,5.414h0a5.415,5.415,0,0,0,5.41-5.4,5.418,5.418,0,0,0-5.4-5.415Zm6.494,5.415h0Z" transform="translate(486.955 -2087.682)"/></g><g transform="translate(15.769 12.394)"><path class="d" d="M-483.178,2091.417h0a1.255,1.255,0,0,1-1.254-1.254l0-2.817a1.253,1.253,0,0,1,1.254-1.254h0a1.253,1.253,0,0,1,1.254,1.254l0,2.817A1.255,1.255,0,0,1-483.178,2091.417Z" transform="translate(484.432 -2086.092)"/></g><g transform="translate(15.756 29.968)"><rect class="d" width="2.508" height="5.325" rx="0.5"/></g><g transform="translate(8.687 28.149)"><path class="d" d="M-485.957,2096.865a1.246,1.246,0,0,1-.825-.308,1.256,1.256,0,0,1-.12-1.771l1.635-1.882a1.254,1.254,0,0,1,1.771-.121,1.252,1.252,0,0,1,.121,1.769l-1.635,1.881A1.256,1.256,0,0,1-485.957,2096.865Z" transform="translate(487.212 -2092.474)"/></g><g transform="translate(21.248 15.417)"><path class="d" d="M-481.034,2091.854a1.247,1.247,0,0,1-.87-.35,1.255,1.255,0,0,1-.033-1.773l1.951-2.03a1.255,1.255,0,0,1,1.773-.035,1.256,1.256,0,0,1,.035,1.774l-1.954,2.031A1.256,1.256,0,0,1-481.034,2091.854Z" transform="translate(482.288 -2087.315)"/></g><g transform="translate(5.079 22.549)"><path class="d" d="M-484.523,2092.71h0l-2.819,0a1.252,1.252,0,0,1-1.251-1.254,1.254,1.254,0,0,1,1.254-1.254h0l2.819,0a1.254,1.254,0,0,1,1.252,1.254A1.253,1.253,0,0,1-484.523,2092.71Z" transform="translate(488.594 -2090.2)"/></g><g transform="translate(23.898 22.564)"><path class="d" d="M-477.733,2092.717h0l-2.262,0a1.256,1.256,0,0,1-1.254-1.256,1.254,1.254,0,0,1,1.254-1.252h0l2.265,0a1.253,1.253,0,0,1,1.251,1.257A1.254,1.254,0,0,1-477.733,2092.717Z" transform="translate(481.25 -2090.206)"/></g><g transform="translate(21.311 27.641)"><path class="d" d="M-479.017,2096.769a1.25,1.25,0,0,1-.888-.366l-1.991-1.994a1.253,1.253,0,0,1,0-1.773,1.256,1.256,0,0,1,1.773,0l1.992,1.994a1.255,1.255,0,0,1,0,1.773A1.25,1.25,0,0,1-479.017,2096.769Z" transform="translate(482.263 -2092.269)"/></g><g transform="translate(8.492 15.399)"><path class="d" d="M-484.269,2091.584a1.246,1.246,0,0,1-.888-.368l-1.766-1.769a1.251,1.251,0,0,1,0-1.772,1.254,1.254,0,0,1,1.773,0l1.766,1.767a1.257,1.257,0,0,1,0,1.773A1.249,1.249,0,0,1-484.269,2091.584Z" transform="translate(487.289 -2087.308)"/></g><g transform="translate(15.543 18.152)"><path class="d" d="M-482.951,2088.431l-1.571,7.274,3.131,0Z" transform="translate(484.522 -2088.431)"/></g><path class="d" d="M-479.407,2110.48h-3.837a2.3,2.3,0,0,1-2.373-2.2l.008-9.468a2.293,2.293,0,0,1,2.375-2.195l3.838,0a2.3,2.3,0,0,1,2.375,2.2l-.01,9.466A2.292,2.292,0,0,1-479.407,2110.48Z" transform="translate(498.396 -2058.453)"/><path class="d" d="M-483.135,2101.146h0Z" transform="translate(502.178 -2051.627)"/><g transform="translate(16.335 17.484)"><path class="d" d="M-464.549,2126.89h0l-18.6-.012a1.25,1.25,0,0,1-.885-.369,1.254,1.254,0,0,1-.366-.885l0-3.961a1.255,1.255,0,0,1,1.254-1.254h0a1.251,1.251,0,0,1,1.252,1.254l0,2.707,16.1.012.028-34.753a1.255,1.255,0,0,1,1.254-1.255h0l7.093,0a1.255,1.255,0,0,1,1.252,1.255,1.254,1.254,0,0,1-1.254,1.254h0l-5.836,0-.028,34.753a1.253,1.253,0,0,1-.369.887A1.246,1.246,0,0,1-464.549,2126.89Z" transform="translate(484.407 -2088.374)"/></g><path class="d" d="M-468.235,2093.193h0l-3.945,0a1.862,1.862,0,0,1-1.859-1.859v-1.648a1.862,1.862,0,0,1,1.861-1.859l3.948,0a1.867,1.867,0,0,1,1.859,1.866l0,1.64A1.86,1.86,0,0,1-468.235,2093.193Z" transform="translate(516.374 -2071.156)"/><path class="d" d="M-471.985,2088.568h0Z" transform="translate(519.477 -2070.037)"/></g></g></svg>