<svg xmlns="http://www.w3.org/2000/svg" xmlns:xlink="http://www.w3.org/1999/xlink" width="98" height="98" viewBox="0 0 98 98"><defs><style>.a{fill:none;stroke:#707070;}.b{clip-path:url(#a);}.c{fill:url(#b);}.d{fill:#fff;}</style><clipPath id="a"><rect class="a" width="98" height="98" transform="translate(238 1902)"/></clipPath><linearGradient id="b" x1="0.5" x2="0.5" y2="1" gradientUnits="objectBoundingBox"><stop offset="0" stop-color="#1fc5ba"/><stop offset="1" stop-color="#1cd2bc"/></linearGradient></defs><g class="b" transform="translate(-238 -1902)"><rect class="c" width="96" height="96" rx="16" transform="translate(239 1903)"/><g transform="translate(899.182 1587.3)"><path class="d" d="M-611.735,376.944a14.875,14.875,0,0,0,4.3,10.446,2.558,2.558,0,0,0,.283.257,21.635,21.635,0,0,1-11.789,4.053,21.1,21.1,0,0,1-20.5-20.864c0-2.512.961-5.823,2.827-9.847a89.994,89.994,0,0,1,6.3-11.017c2.431-3.711,4.863-7.05,6.474-9.191,1.837-2.426,3.11-4,3.279-4.224a2,2,0,0,1,1.612-.856,2,2,0,0,1,1.611.856c.17.228,1.442,1.8,3.279,4.224,1.64,2.141,4.043,5.48,6.474,9.191a89.785,89.785,0,0,1,6.276,11.017c.255.571.509,1.113.763,1.655A14.691,14.691,0,0,0-611.735,376.944Z" transform="translate(0 0)"/><path class="d" d="M-616.922,346.02A11.681,11.681,0,0,0-628.6,357.7a11.681,11.681,0,0,0,11.678,11.678A11.681,11.681,0,0,0-605.244,357.7,11.681,11.681,0,0,0-616.922,346.02Zm7.3,14.619a.879.879,0,0,1-.2.509.746.746,0,0,1-.537.2h-8.03a.682.682,0,0,1-.509-.2.773.773,0,0,1-.226-.537V350.4a.663.663,0,0,1,.226-.509.708.708,0,0,1,.509-.226h1.47a.708.708,0,0,1,.509.226.662.662,0,0,1,.226.509v8.03h5.825a.772.772,0,0,1,.537.226.753.753,0,0,1,.2.509Z" transform="translate(19.804 19.383)"/></g></g></svg>