<svg xmlns="http://www.w3.org/2000/svg" xmlns:xlink="http://www.w3.org/1999/xlink" width="98" height="98" viewBox="0 0 98 98"><defs><style>.a{fill:none;stroke:#707070;}.b{clip-path:url(#a);}.c{fill:url(#b);}.d{fill:#fff;}</style><clipPath id="a"><rect class="a" width="98" height="98" transform="translate(238 2832)"/></clipPath><linearGradient id="b" x1="0.5" x2="0.5" y2="1" gradientUnits="objectBoundingBox"><stop offset="0" stop-color="#1fc5ba"/><stop offset="1" stop-color="#1cd2bc"/></linearGradient></defs><g class="b" transform="translate(-238 -2832)"><rect class="c" width="96" height="96" rx="16" transform="translate(239 2833)"/><path class="d" d="M-588.217,474A12.383,12.383,0,0,0-600.6,461.672h-6.724a2.8,2.8,0,0,0-2.689-2.184,2.728,2.728,0,0,0-2.689,2.184h-7.508a2.738,2.738,0,0,0-2.718-2.212,2.788,2.788,0,0,0-2.745,2.24h-6a12.34,12.34,0,0,0-12.382,11.917V501.6a12.331,12.331,0,0,0,12.382,11.862h30.788A12.746,12.746,0,0,0-588.049,500.8Zm-24.092-9.954a2.349,2.349,0,0,1,2.381-2.267,2.331,2.331,0,0,1,2.381,2.267v3.014a2.331,2.331,0,0,1-2.381,2.267,2.727,2.727,0,0,1-1.709-.636,2.5,2.5,0,0,1-.672-1.576Zm-13,0a2.33,2.33,0,0,1,2.381-2.267,2.349,2.349,0,0,1,2.381,2.267v3.014a2.349,2.349,0,0,1-2.381,2.267,2.509,2.509,0,0,1-1.709-.636,2.5,2.5,0,0,1-.672-1.576Zm-4.118,12.5h25.073a2.263,2.263,0,0,1,2.269,2.24,2.287,2.287,0,0,1-2.269,2.267h-25.073a2.293,2.293,0,0,1-2.3-2.267A2.269,2.269,0,0,1-629.427,476.548Zm11.262,21.373a2.306,2.306,0,0,1-1.625.663h-9.637a2.293,2.293,0,0,1-2.3-2.267,2.269,2.269,0,0,1,2.3-2.24h9.637a2.269,2.269,0,0,1,2.3,2.24A2.337,2.337,0,0,1-618.165,497.921Zm-11.262-8.157a2.288,2.288,0,0,1-2.3-2.24,2.293,2.293,0,0,1,2.3-2.267h16.809a2.293,2.293,0,0,1,2.3,2.267,2.231,2.231,0,0,1-.672,1.576,2.259,2.259,0,0,1-1.625.664Zm40.145,10.756-4.846,4.7a1.592,1.592,0,0,1-.2.221l-6.892,6.691a2.822,2.822,0,0,1-.448.359,2.451,2.451,0,0,1-1.261.332,2.17,2.17,0,0,1-1.625-.664l-6.779-6.857a2.216,2.216,0,0,1-.56-2.157,2.345,2.345,0,0,1,1.6-1.548,2.329,2.329,0,0,1,2.213.608l5.155,5.309,3.306-3.235a1.585,1.585,0,0,1,.2-.221l6.892-6.664a2.306,2.306,0,0,1,1.625-.664,2.213,2.213,0,0,1,1.625.664A2.151,2.151,0,0,1-589.282,500.52Z" transform="translate(903.05 2394.54)"/></g></svg>