<svg xmlns="http://www.w3.org/2000/svg" xmlns:xlink="http://www.w3.org/1999/xlink" width="50" height="50" viewBox="0 0 50 50"><defs><style>.a{fill:none;stroke:#707070;}.b{clip-path:url(#a);}.c{fill:url(#b);}.d{fill:#fff;stroke:rgba(0,0,0,0);stroke-miterlimit:10;}.e{filter:url(#c);}</style><clipPath id="a"><rect class="a" width="50" height="50" transform="translate(39 386)"/></clipPath><linearGradient id="b" x1="0.5" x2="0.5" y2="1" gradientUnits="objectBoundingBox"><stop offset="0" stop-color="#f77"/><stop offset="1" stop-color="#f90d0d"/></linearGradient><filter id="c" x="9.437" y="10.499" width="31.127" height="31.001" filterUnits="userSpaceOnUse"><feOffset dy="1" input="SourceAlpha"/><feGaussianBlur stdDeviation="1" result="d"/><feFlood flood-color="#8a0000" flood-opacity="0.4"/><feComposite operator="in" in2="d"/><feComposite in="SourceGraphic"/></filter></defs><g class="b" transform="translate(-39 -386)"><rect class="c" width="48" height="48" rx="24" transform="translate(40 387)"/><g transform="translate(719.936 -158.02)"><g class="e" transform="matrix(1, 0, 0, 1, -680.94, 544.02)"><path class="d" d="M-4694.058,11400.02a.871.871,0,0,1-.873-.869.867.867,0,0,1,.255-.615.875.875,0,0,1,.618-.255h2.833v-8.051a8.276,8.276,0,0,1,8.294-8.269,8.271,8.271,0,0,1,8.28,8.269v8.051h2.841a.869.869,0,0,1,.87.87.869.869,0,0,1-.87.869Zm11.559-4.7a.191.191,0,0,0,.24.154h.324c.12,0,.154-.252.154-.252l.938-4.669.3,1.021a.18.18,0,0,0,.24.157h1.98c.12,0,.217-.1.18-.194v-.406a.2.2,0,0,0-.2-.218h-1.6l-.575-1.966a.19.19,0,0,0-.24-.169h-.323c-.1-.025-.181.072-.218.169l-.838,4.306-1.142-5.987a.213.213,0,0,0-.241-.169h-.42c-.154,0-.191.169-.191.169l-.864,4.752-.3-1.019c-.035-.12-.117-.12-.238-.12h-1.994a.2.2,0,0,0-.2.215v.443a.168.168,0,0,0,.2.169h1.6l.6,1.931c.035.12.121.194.241.157h.3c.094.037.214-.06.237-.157l.878-4.38Zm-12.033-11.272a.8.8,0,0,1-.295-1.1.8.8,0,0,1,.486-.372.791.791,0,0,1,.609.08l2.543,1.474-.8,1.393Zm19.853.08,2.543-1.474a.8.8,0,0,1,1.09.292l0,0a.8.8,0,0,1-.292,1.1l-2.543,1.474Zm-3.951-3.373,1.468-2.55a.8.8,0,0,1,.483-.372.788.788,0,0,1,.606.078h.006a.8.8,0,0,1,.295,1.1l-1.471,2.552Zm-11.464-1.748a.8.8,0,0,1,.292-1.1h0a.8.8,0,0,1,.606-.08.808.808,0,0,1,.489.371l1.468,2.553-1.388.8Zm6.289.715v-2.893a.841.841,0,0,1,.87-.81.842.842,0,0,1,.87.813v2.89Z" transform="translate(4707.94 -11363.02)"/></g></g></g></svg>