<svg xmlns="http://www.w3.org/2000/svg" xmlns:xlink="http://www.w3.org/1999/xlink" width="50" height="50" viewBox="0 0 50 50"><defs><style>.a{fill:none;stroke:#707070;}.b{clip-path:url(#a);}.c{fill:url(#b);}.d{fill:#fff;stroke:rgba(0,0,0,0);stroke-miterlimit:10;}.e{filter:url(#c);}</style><clipPath id="a"><rect class="a" width="50" height="50" transform="translate(39 386)"/></clipPath><linearGradient id="b" x1="0.5" x2="0.5" y2="1" gradientUnits="objectBoundingBox"><stop offset="0" stop-color="#79fbdf"/><stop offset="1" stop-color="#07cea3"/></linearGradient><filter id="c" x="9.497" y="10.5" width="31.065" height="31" filterUnits="userSpaceOnUse"><feOffset dy="1" input="SourceAlpha"/><feGaussianBlur stdDeviation="1" result="d"/><feFlood flood-color="#018064" flood-opacity="0.4"/><feComposite operator="in" in2="d"/><feComposite in="SourceGraphic"/></filter></defs><g class="b" transform="translate(-39 -386)"><rect class="c" width="48" height="48" rx="24" transform="translate(40 387)"/><g transform="translate(687.044 -158.02)"><g class="e" transform="matrix(1, 0, 0, 1, -648.04, 544.02)"><path class="d" d="M-4661.168,10948.02a.87.87,0,0,1-.871-.868.878.878,0,0,1,.253-.618.883.883,0,0,1,.618-.253h2.835v-8.051a8.274,8.274,0,0,1,8.292-8.267,8.271,8.271,0,0,1,8.281,8.267v8.051h2.838a.871.871,0,0,1,.871.871.87.87,0,0,1-.871.868Zm10.839-13.1c-.025.036-.264.311-.574.72-.277.371-.72.948-1.14,1.572a18.216,18.216,0,0,0-1.1,1.9,4.125,4.125,0,0,0-.492,1.692,3.65,3.65,0,0,0,3.588,3.563,3.661,3.661,0,0,0,3.61-3.563,4.178,4.178,0,0,0-.5-1.692,16.927,16.927,0,0,0-1.1-1.9c-.42-.638-.852-1.2-1.14-1.572-.311-.409-.539-.684-.563-.72a.368.368,0,0,0-.3-.146A.341.341,0,0,0-4650.329,10934.919Zm.253,7.775a.411.411,0,0,1,.252-.47,1.784,1.784,0,0,0,1.151-1.653.42.42,0,0,1,.432-.421.417.417,0,0,1,.42.421,2.654,2.654,0,0,1-1.679,2.423.407.407,0,0,1-.156.036A.44.44,0,0,1-4650.076,10942.694Zm8.284-10.566,2.547-1.473a.8.8,0,0,1,1.091.291l0,0a.809.809,0,0,1-.294,1.1l-2.544,1.473Zm-19.851-.083a.8.8,0,0,1-.294-1.1.805.805,0,0,1,.486-.374.807.807,0,0,1,.61.082l2.544,1.473-.8,1.391Zm15.9-3.289,1.467-2.552a.823.823,0,0,1,.483-.374.8.8,0,0,1,.607.08h.005a.805.805,0,0,1,.294,1.1l-1.47,2.553Zm-11.466-1.75a.8.8,0,0,1,.294-1.1.8.8,0,0,1,.61-.08.788.788,0,0,1,.486.371l1.47,2.553-1.39.8Zm6.292.715v-2.894a.84.84,0,0,1,.869-.808.84.84,0,0,1,.868.811v2.891Z" transform="translate(4675.04 -10911.02)"/></g></g></g></svg>