<svg xmlns="http://www.w3.org/2000/svg" xmlns:xlink="http://www.w3.org/1999/xlink" width="22" height="22" viewBox="0 0 22 22"><defs><style>.a{fill:none;stroke:#707070;}.b{clip-path:url(#a);}.c{fill:#999;}</style><clipPath id="a"><rect class="a" width="22" height="22" transform="translate(128 639)"/></clipPath></defs><g class="b" transform="translate(-128 -639)"><g transform="translate(774.674 126.118)"><path class="c" d="M-635.678,513.882a6.987,6.987,0,0,0-7.062,6.9,6.747,6.747,0,0,0,1.161,3.8l.074.106.043.072.035.053a1.05,1.05,0,0,0,.078.1l.017.019,4.491,5.249a1.527,1.527,0,0,0,1.164.535,1.526,1.526,0,0,0,1.162-.539l4.466-5.249-.029.032a1.145,1.145,0,0,0,.12-.149l.034-.053c.014-.022.042-.069.041-.068a6.842,6.842,0,0,0,1.253-3.9,6.976,6.976,0,0,0-7.048-6.91Zm0,1.539a5.439,5.439,0,0,1,5.516,5.362,5.321,5.321,0,0,1-.987,3.038l-.066.106-4.465,5.248-4.491-5.249-.044-.072-.022-.033a5.214,5.214,0,0,1-.972-3.038,5.452,5.452,0,0,1,5.531-5.362Zm0,0"/><path class="c" d="M-629.574,528.456a.764.764,0,0,1,1.015.226l.032.051,1.647,2.834a1.545,1.545,0,0,1,.028,1.5,1.53,1.53,0,0,1-1.257.811l-.1,0-14.943-.082a1.53,1.53,0,0,1-1.3-.734,1.545,1.545,0,0,1-.064-1.494l.048-.089,1.569-2.689a.764.764,0,0,1,1.023-.291.771.771,0,0,1,.327,1.016l-.028.053-1.569,2.689,14.943.082-1.647-2.834a.772.772,0,0,1,.276-1.053Zm0,0"/><path class="c" d="M-635.672,517.843a3.07,3.07,0,0,0-3.063,3.079A3.071,3.071,0,0,0-635.671,524a3.072,3.072,0,0,0,3.063-3.079,3.071,3.071,0,0,0-3.064-3.078Zm0,1.539a1.53,1.53,0,0,1,1.326.77,1.544,1.544,0,0,1,0,1.539,1.533,1.533,0,0,1-1.327.77,1.537,1.537,0,0,1-1.532-1.54,1.537,1.537,0,0,1,1.533-1.539Zm0,0"/></g></g></svg>