<svg xmlns="http://www.w3.org/2000/svg" xmlns:xlink="http://www.w3.org/1999/xlink" width="50" height="50" viewBox="0 0 50 50"><defs><style>.a{fill:none;stroke:#707070;}.b{clip-path:url(#a);}.c{fill:url(#b);}.d{fill:#fff;stroke:rgba(0,0,0,0);stroke-miterlimit:10;}.e{filter:url(#c);}</style><clipPath id="a"><rect class="a" width="50" height="50" transform="translate(39 386)"/></clipPath><linearGradient id="b" x1="0.5" x2="0.5" y2="1" gradientUnits="objectBoundingBox"><stop offset="0" stop-color="#beceff"/><stop offset="1" stop-color="#285bfe"/></linearGradient><filter id="c" x="9.497" y="10.501" width="31.065" height="31" filterUnits="userSpaceOnUse"><feOffset dy="1" input="SourceAlpha"/><feGaussianBlur stdDeviation="1" result="d"/><feFlood flood-color="#002394" flood-opacity="0.4"/><feComposite operator="in" in2="d"/><feComposite in="SourceGraphic"/></filter></defs><g class="b" transform="translate(-39 -386)"><rect class="c" width="48" height="48" rx="24" transform="translate(40 387)"/><g transform="translate(625.059 -158.02)"><g class="e" transform="matrix(1, 0, 0, 1, -586.06, 544.02)"><path class="d" d="M-4599.183,10044.021a.872.872,0,0,1-.872-.87.871.871,0,0,1,.255-.617.867.867,0,0,1,.617-.252h2.844v-8.052a8.27,8.27,0,0,1,8.278-8.268,8.263,8.263,0,0,1,8.281,8.268v8.052h2.846a.87.87,0,0,1,.872.869.872.872,0,0,1-.872.87Zm9.43-7.943c-.948.961-1.908,1.908-2.856,2.856a.726.726,0,0,0-.239.6.8.8,0,0,0,.07.434.879.879,0,0,0,1.442.227c.96-.935,1.908-1.9,2.866-2.843.073-.073.073-.108,0-.182-.371-.36-.731-.731-1.1-1.092-.034-.04-.06-.058-.085-.058S-4589.714,10036.041-4589.752,10036.077Zm-.575-1.618c1.152,1.162,2.314,2.327,3.479,3.479a.2.2,0,0,1,.061.239,1.573,1.573,0,0,0-.061.7,1.771,1.771,0,0,0,2.543,1.394c-.383-.386-.754-.756-1.127-1.116a.676.676,0,0,1-.229-.564.591.591,0,0,1,.385-.479.6.6,0,0,1,.661.156c.348.348.7.684,1.031,1.044.131.144.169.083.217-.061a1.7,1.7,0,0,0-.36-1.777,1.729,1.729,0,0,0-1.787-.526.285.285,0,0,1-.3-.073c-1.14-1.152-2.292-2.3-3.443-3.456a.214.214,0,0,1-.071-.263,1.8,1.8,0,0,0-.9-2.064,1.836,1.836,0,0,0-1.608-.022c.409.394.779.767,1.152,1.149a.6.6,0,0,1,.048.888.612.612,0,0,1-.9-.048l-1.021-1.019c-.035-.035-.061-.1-.131-.083a1.637,1.637,0,0,0-.134,1.092,1.78,1.78,0,0,0,2.233,1.355.45.45,0,0,1,.095-.012A.244.244,0,0,1-4590.327,10034.459Zm5.9-3.3a1.815,1.815,0,0,0-1.177,1.164,2.327,2.327,0,0,1-.671.926c-.36.335-.7.7-1.056,1.043-.073.083-.1.131,0,.217.156.144.3.287.444.443a.567.567,0,0,0,.1.071.8.8,0,0,0,.1-.083c.179-.182.373-.361.54-.553a5.6,5.6,0,0,1,2.064-1.5.424.424,0,0,0,.227-.227,9.557,9.557,0,0,1,.469-.89.29.29,0,0,0-.083-.469c-.156-.118-.252-.371-.434-.383h-.013C-4584.085,10030.917-4584.25,10031.088-4584.424,10031.157Zm-15.232-3.11a.8.8,0,0,1-.295-1.1.786.786,0,0,1,.486-.373.774.774,0,0,1,.607.08l2.546,1.473-.8,1.392Zm19.851.08,2.543-1.472a.8.8,0,0,1,1.094.29l0,0a.807.807,0,0,1-.295,1.1l-2.543,1.47Zm-3.95-3.373,1.47-2.548a.79.79,0,0,1,.484-.376.808.808,0,0,1,.6.078h.005a.807.807,0,0,1,.292,1.1l-1.467,2.551Zm-11.464-1.749a.808.808,0,0,1,.292-1.1h0a.8.8,0,0,1,.607-.078.78.78,0,0,1,.486.373l1.47,2.549-1.386.8Zm6.289.716v-2.894a.84.84,0,0,1,.87-.807.839.839,0,0,1,.87.81v2.891Z" transform="translate(4613.06 -10007.02)"/></g></g></g></svg>