<svg xmlns="http://www.w3.org/2000/svg" xmlns:xlink="http://www.w3.org/1999/xlink" width="22" height="22" viewBox="0 0 22 22"><defs><style>.a{fill:none;stroke:#707070;}.b{fill:#999;}.c{clip-path:url(#a);}.d{clip-path:url(#b);}</style><clipPath id="a"><rect class="a" width="22" height="22" transform="translate(128 593)"/></clipPath><clipPath id="b"><rect class="b" width="20" height="20" transform="translate(-674.601 513.893)"/></clipPath></defs><g class="c" transform="translate(-128 -593)"><g transform="translate(803.601 80.107)"><g class="d"><path class="b" d="M-657.544,516.829a10.016,10.016,0,0,0-14.137,0,9.982,9.982,0,0,0,0,14.116,10.018,10.018,0,0,0,14.137,0,9.982,9.982,0,0,0,0-14.116Zm-1.015,13.1a8.579,8.579,0,0,1-12.107,0,8.549,8.549,0,0,1,0-12.091,8.58,8.58,0,0,1,12.107,0,8.551,8.551,0,0,1,0,12.091Zm0,0"/></g><path class="b" d="M-659.647,524.112h-4.885v-5.4a.652.652,0,0,0-.652-.65.651.651,0,0,0-.651.65v5.566a1.2,1.2,0,0,0,.287.816,1.09,1.09,0,0,0,.833.315h5.067a.652.652,0,0,0,.652-.65.654.654,0,0,0-.652-.65Zm0,0"/></g></g></svg>