<svg xmlns="http://www.w3.org/2000/svg" xmlns:xlink="http://www.w3.org/1999/xlink" width="50" height="50" viewBox="0 0 50 50"><defs><style>.a{fill:none;stroke:#707070;}.b{clip-path:url(#a);}.c{fill:url(#b);}.d{fill:#fff;stroke:rgba(0,0,0,0);stroke-miterlimit:10;}.e{filter:url(#c);}</style><clipPath id="a"><rect class="a" width="50" height="50" transform="translate(39 386)"/></clipPath><linearGradient id="b" x1="0.5" x2="0.5" y2="1" gradientUnits="objectBoundingBox"><stop offset="0" stop-color="#ffca81"/><stop offset="1" stop-color="#ff8000"/></linearGradient><filter id="c" x="9.496" y="10.5" width="31.065" height="31" filterUnits="userSpaceOnUse"><feOffset dy="1" input="SourceAlpha"/><feGaussianBlur stdDeviation="1" result="d"/><feFlood flood-color="#ab5905" flood-opacity="0.4"/><feComposite operator="in" in2="d"/><feComposite in="SourceGraphic"/></filter></defs><g class="b" transform="translate(-39 -386)"><rect class="c" width="48" height="48" rx="24" transform="translate(40 387)"/><g transform="translate(655.916 -158.02)"><g class="e" transform="matrix(1, 0, 0, 1, -616.92, 544.02)"><path class="d" d="M-4630.04,10496.02a.872.872,0,0,1-.872-.869.87.87,0,0,1,.255-.616.857.857,0,0,1,.616-.253h2.837v-8.05a8.272,8.272,0,0,1,8.29-8.269,8.272,8.272,0,0,1,8.282,8.269v8.05h2.839a.87.87,0,0,1,.872.869.87.87,0,0,1-.872.869Zm10.647-6.322a1.56,1.56,0,0,0-1.03,1.465,1.569,1.569,0,0,0,1.57,1.573,1.563,1.563,0,0,0,1.572-1.573,1.576,1.576,0,0,0-1.117-1.5l-.49-2.447Zm3.206-3.6.7.709,1.391-1.381-.708-.708Zm-7.549-.672,1.394,1.381.706-.709-1.391-1.38Zm6.061-.216.9.433.83-1.775-.9-.419Zm-4.178-1.343.83,1.775.9-.419-.827-1.775Zm2.5,1.235h1v-1.955h-1Zm-11.158-5.056a.8.8,0,0,1-.295-1.1.8.8,0,0,1,.487-.374.794.794,0,0,1,.608.079l2.545,1.476-.8,1.391Zm19.851.082,2.544-1.473a.8.8,0,0,1,1.093.29l0,0a.806.806,0,0,1-.3,1.1l-2.542,1.47Zm-3.949-3.372,1.467-2.55a.8.8,0,0,1,.485-.374.806.806,0,0,1,.606.076h0a.808.808,0,0,1,.3,1.1l-1.47,2.55Zm-11.466-1.751a.807.807,0,0,1,.295-1.1.807.807,0,0,1,.608-.078.784.784,0,0,1,.487.371l1.47,2.553-1.388.8Zm6.291.716v-2.892a.841.841,0,0,1,.869-.81.839.839,0,0,1,.869.812v2.89Z" transform="translate(4643.92 -10459.02)"/></g></g></g></svg>