<svg xmlns="http://www.w3.org/2000/svg" xmlns:xlink="http://www.w3.org/1999/xlink" width="28" height="28" viewBox="0 0 28 28"><defs><style>.a{fill:none;stroke:#707070;}.b{clip-path:url(#a);}.c{fill:#ccc;}</style><clipPath id="a"><rect class="a" width="28" height="28"/></clipPath></defs><g class="b" transform="translate(28) rotate(90)"><path class="c" d="M295.526,108c.021.017.042.038.064.058a1.289,1.289,0,0,1,0,1.885c-.021.02-.043.041-.064.058L284.387,120.61a1.447,1.447,0,0,1-1.977,0,1.286,1.286,0,0,1,0-1.882L292.623,109,282.41,99.273a1.286,1.286,0,0,1,0-1.882,1.447,1.447,0,0,1,1.977,0Z" transform="translate(-274.895 -95)"/></g></svg>