<svg xmlns="http://www.w3.org/2000/svg" xmlns:xlink="http://www.w3.org/1999/xlink" width="150" height="111" viewBox="0 0 150 111"><defs><style>.a{fill:#fff;stroke:#707070;}.b{opacity:0.7;clip-path:url(#a);}.c{fill:url(#b);}</style><clipPath id="a"><rect class="a" width="150" height="111" transform="translate(580 887)"/></clipPath><linearGradient id="b" x1="0.5" x2="0.5" y2="1" gradientUnits="objectBoundingBox"><stop offset="0" stop-color="#f5bd74"/><stop offset="1" stop-color="#efd0a1"/></linearGradient></defs><g class="b" transform="translate(-580 -887)"><path class="c" d="M954.308,2717.712a3.366,3.366,0,0,1,.594-3.216,58.452,58.452,0,0,0,13.306-36.85c0-34.708-31.292-62.882-69.884-62.882s-69.814,28.14-69.814,62.882c0,34.708,31.258,62.847,69.849,62.847a74.961,74.961,0,0,0,38.347-10.338,4.474,4.474,0,0,1,3.038-.517l17.288,3.492a1.58,1.58,0,0,0,1.816-2.039Zm-65.483-11.787H869.756a9.439,9.439,0,1,1,0-18.877h19.069a9.439,9.439,0,1,1,0,18.877Zm38.1-31.425H869.756a9.437,9.437,0,1,1,0-18.873h57.136a9.437,9.437,0,1,1,.035,18.873Z" transform="matrix(0.966, -0.259, 0.259, 0.966, -905.096, -1416.879)"/></g></svg>