<svg xmlns="http://www.w3.org/2000/svg" xmlns:xlink="http://www.w3.org/1999/xlink" width="64" height="64" viewBox="0 0 64 64"><defs><style>.a{fill:none;stroke:#707070;}.b{clip-path:url(#a);}.c{fill:url(#b);}.d{fill:url(#c);}.e{fill:#fff;}.f{fill:url(#i);}.g{filter:url(#l);}.h{filter:url(#j);}.i{filter:url(#f);}.j{filter:url(#d);}</style><clipPath id="a"><rect class="a" width="64" height="64"/></clipPath><radialGradient id="b" cx="0.5" cy="0.5" r="0.564" gradientTransform="matrix(0.997, 0.081, -0.081, 0.997, 0.042, -0.039)" gradientUnits="objectBoundingBox"><stop offset="0" stop-color="#1a203a"/><stop offset="1" stop-color="#35447a"/></radialGradient><linearGradient id="c" x1="0.132" y1="1" x2="0.132" gradientUnits="objectBoundingBox"><stop offset="0" stop-color="#43498d"/><stop offset="1" stop-color="#8890d1"/></linearGradient><filter id="d" x="16.851" y="12.279" width="29.936" height="16.179" filterUnits="userSpaceOnUse"><feOffset dy="2" input="SourceAlpha"/><feGaussianBlur stdDeviation="1.5" result="e"/><feFlood flood-color="#20234e" flood-opacity="0.302"/><feComposite operator="in" in2="e"/><feComposite in="SourceGraphic"/></filter><filter id="f" x="16.851" y="12.279" width="29.936" height="16.179" filterUnits="userSpaceOnUse"><feOffset dx="0.2" dy="0.2" input="SourceAlpha"/><feGaussianBlur result="g"/><feFlood flood-color="#fff" flood-opacity="0.161" result="h"/><feComposite operator="out" in="SourceGraphic" in2="g"/><feComposite operator="in" in="h"/><feComposite operator="in" in2="SourceGraphic"/></filter><linearGradient id="i" x1="0.881" y1="1" x2="0.049" y2="0.066" gradientUnits="objectBoundingBox"><stop offset="0" stop-color="#f5bd74"/><stop offset="1" stop-color="#efd0a1"/></linearGradient><filter id="j" x="9.916" y="14.365" width="43.832" height="42.519" filterUnits="userSpaceOnUse"><feOffset dy="2" input="SourceAlpha"/><feGaussianBlur stdDeviation="2" result="k"/><feFlood flood-color="#20234e"/><feComposite operator="in" in2="k"/><feComposite in="SourceGraphic"/></filter><filter id="l" x="9.916" y="14.365" width="43.832" height="42.519" filterUnits="userSpaceOnUse"><feOffset dx="0.4" dy="0.4" input="SourceAlpha"/><feGaussianBlur stdDeviation="0.05" result="m"/><feFlood flood-color="#fff" flood-opacity="0.349" result="n"/><feComposite operator="out" in="SourceGraphic" in2="m"/><feComposite operator="in" in="n"/><feComposite operator="in" in2="SourceGraphic"/></filter></defs><g class="b"><g transform="translate(1.137 1.137)"><circle class="c" cx="31" cy="31" r="31" transform="translate(-0.137 -0.137)"/><g transform="translate(14.779 13.642)"><g data-type="innerShadowGroup"><g class="j" transform="matrix(1, 0, 0, 1, -15.92, -14.78)"><path class="d" d="M623.584,2625.321a2.439,2.439,0,0,0,2.483-2.393v-2.393a2.485,2.485,0,0,0-4.966,0v2.393a2.44,2.44,0,0,0,2.483,2.393Zm-15.97,0a2.439,2.439,0,0,0,2.483-2.393v-2.393a2.485,2.485,0,0,0-4.966,0v2.393a2.437,2.437,0,0,0,2.483,2.393Zm0,0" transform="translate(-583.78 -2603.36)"/></g><g class="i" transform="matrix(1, 0, 0, 1, -15.92, -14.78)"><path class="e" d="M623.584,2625.321a2.439,2.439,0,0,0,2.483-2.393v-2.393a2.485,2.485,0,0,0-4.966,0v2.393a2.44,2.44,0,0,0,2.483,2.393Zm-15.97,0a2.439,2.439,0,0,0,2.483-2.393v-2.393a2.485,2.485,0,0,0-4.966,0v2.393a2.437,2.437,0,0,0,2.483,2.393Zm0,0" transform="translate(-583.78 -2603.36)"/></g></g><g data-type="innerShadowGroup"><g class="h" transform="matrix(1, 0, 0, 1, -15.92, -14.78)"><path class="f" d="M628.354,2621.5v1.467c0,1.859-1.86,3.368-4.138,3.368s-4.138-1.51-4.138-3.368V2621.3h-7.707v1.671c0,1.859-1.852,3.368-4.138,3.368s-4.138-1.51-4.138-3.368v-1.442a5.386,5.386,0,0,0-3.745,5.151v19.757a5.344,5.344,0,0,0,5.311,5.381h21.218a5.337,5.337,0,0,0,5.3-5.381v-19.757A5.357,5.357,0,0,0,628.354,2621.5Zm-1.969,23.662H606.164a1.6,1.6,0,0,1,0-3.189h20.221a1.6,1.6,0,0,1,0,3.189Zm0-8.441H606.164a1.592,1.592,0,0,1,0-3.181h20.221a1.592,1.592,0,0,1,0,3.181Z" transform="translate(-584.43 -2602.93)"/></g><g class="g" transform="matrix(1, 0, 0, 1, -15.92, -14.78)"><path class="e" d="M628.354,2621.5v1.467c0,1.859-1.86,3.368-4.138,3.368s-4.138-1.51-4.138-3.368V2621.3h-7.707v1.671c0,1.859-1.852,3.368-4.138,3.368s-4.138-1.51-4.138-3.368v-1.442a5.386,5.386,0,0,0-3.745,5.151v19.757a5.344,5.344,0,0,0,5.311,5.381h21.218a5.337,5.337,0,0,0,5.3-5.381v-19.757A5.357,5.357,0,0,0,628.354,2621.5Zm-1.969,23.662H606.164a1.6,1.6,0,0,1,0-3.189h20.221a1.6,1.6,0,0,1,0,3.189Zm0-8.441H606.164a1.592,1.592,0,0,1,0-3.181h20.221a1.592,1.592,0,0,1,0,3.181Z" transform="translate(-584.43 -2602.93)"/></g></g></g></g></g></svg>