<svg xmlns="http://www.w3.org/2000/svg" xmlns:xlink="http://www.w3.org/1999/xlink" width="64" height="64" viewBox="0 0 64 64"><defs><style>.a{fill:none;stroke:#707070;}.b{clip-path:url(#a);}.c{fill:url(#b);}.d{fill:url(#c);}.e{fill:#fff;}.f{fill:url(#o);}.g{filter:url(#r);}.h{filter:url(#p);}.i{filter:url(#l);}.j{filter:url(#j);}.k{filter:url(#f);}.l{filter:url(#d);}</style><clipPath id="a"><rect class="a" width="64" height="64" transform="translate(-0.337)"/></clipPath><radialGradient id="b" cx="0.5" cy="0.5" r="0.564" gradientTransform="matrix(0.997, 0.081, -0.081, 0.997, 0.042, -0.039)" gradientUnits="objectBoundingBox"><stop offset="0" stop-color="#1a203a"/><stop offset="1" stop-color="#35447a"/></radialGradient><linearGradient id="c" x1="0.724" y1="0.802" x2="0.131" y2="0.023" gradientUnits="objectBoundingBox"><stop offset="0" stop-color="#f5bd74"/><stop offset="1" stop-color="#efd0a1"/></linearGradient><filter id="d" x="31.82" y="10.779" width="19.686" height="18.556" filterUnits="userSpaceOnUse"><feOffset dy="2" input="SourceAlpha"/><feGaussianBlur stdDeviation="2" result="e"/><feFlood flood-color="#20234e"/><feComposite operator="in" in2="e"/><feComposite in="SourceGraphic"/></filter><filter id="f" x="31.82" y="10.779" width="19.686" height="18.556" filterUnits="userSpaceOnUse"><feOffset dx="0.4" dy="0.4" input="SourceAlpha"/><feGaussianBlur stdDeviation="0.05" result="g"/><feFlood flood-color="#f8f8f8" flood-opacity="0.349" result="h"/><feComposite operator="out" in="SourceGraphic" in2="g"/><feComposite operator="in" in="h"/><feComposite operator="in" in2="SourceGraphic"/></filter><filter id="j" x="11.39" y="10.788" width="40.125" height="44.566" filterUnits="userSpaceOnUse"><feOffset dy="2" input="SourceAlpha"/><feGaussianBlur stdDeviation="2" result="k"/><feFlood flood-color="#20234e"/><feComposite operator="in" in2="k"/><feComposite in="SourceGraphic"/></filter><filter id="l" x="11.39" y="10.788" width="40.125" height="44.566" filterUnits="userSpaceOnUse"><feOffset dx="0.4" dy="0.4" input="SourceAlpha"/><feGaussianBlur stdDeviation="0.05" result="m"/><feFlood flood-color="#f8f8f8" flood-opacity="0.349" result="n"/><feComposite operator="out" in="SourceGraphic" in2="m"/><feComposite operator="in" in="n"/><feComposite operator="in" in2="SourceGraphic"/></filter><linearGradient id="o" y1="1.074" x2="0.908" y2="0.129" gradientUnits="objectBoundingBox"><stop offset="0" stop-color="#43498d"/><stop offset="1" stop-color="#8890d1"/></linearGradient><filter id="p" x="30.418" y="34.889" width="22.167" height="20.495" filterUnits="userSpaceOnUse"><feOffset dy="2" input="SourceAlpha"/><feGaussianBlur stdDeviation="1.5" result="q"/><feFlood flood-color="#20234e" flood-opacity="0.349"/><feComposite operator="in" in2="q"/><feComposite in="SourceGraphic"/></filter><filter id="r" x="30.418" y="34.889" width="22.167" height="20.495" filterUnits="userSpaceOnUse"><feOffset dx="0.2" dy="0.1" input="SourceAlpha"/><feGaussianBlur stdDeviation="0.05" result="s"/><feFlood flood-color="#fff" flood-opacity="0.349" result="t"/><feComposite operator="out" in="SourceGraphic" in2="s"/><feComposite operator="in" in="t"/><feComposite operator="in" in2="SourceGraphic"/></filter></defs><g class="b" transform="translate(0.337)"><g transform="translate(1.137 1.137)"><circle class="c" cx="31" cy="31" r="31" transform="translate(-0.474 -0.137)"/><g transform="translate(15.916 13.642)"><g data-type="innerShadowGroup"><g class="l" transform="matrix(1, 0, 0, 1, -17.39, -14.78)"><path class="d" d="M783.286,2618.144h-.9v4.89a1.674,1.674,0,0,0,1.666,1.667h6.021A6.8,6.8,0,0,0,783.286,2618.144Z" transform="translate(-744.57 -2603.37)"/></g><g class="k" transform="matrix(1, 0, 0, 1, -17.39, -14.78)"><path class="e" d="M783.286,2618.144h-.9v4.89a1.674,1.674,0,0,0,1.666,1.667h6.021A6.8,6.8,0,0,0,783.286,2618.144Z" transform="translate(-744.57 -2603.37)"/></g></g><g data-type="innerShadowGroup"><g class="j" transform="matrix(1, 0, 0, 1, -17.39, -14.78)"><path class="d" d="M786.514,2627.177a4.146,4.146,0,0,1-4.134-4.145v-4.881H771.216a6.8,6.8,0,0,0-6.8,6.795v18.967a6.8,6.8,0,0,0,6.8,6.8h5.074a3.9,3.9,0,0,0,2.536-.94l12.351-10.574a3.873,3.873,0,0,0,1.367-2.966v-9.061Zm-3.092,13.591H773.54a1.239,1.239,0,1,1,0-2.478h9.881a1.239,1.239,0,1,1,0,2.478Zm0-7.821H773.54a1.239,1.239,0,1,1,0-2.478h9.881a1.239,1.239,0,1,1,0,2.478Z" transform="translate(-747.03 -2603.36)"/></g><g class="i" transform="matrix(1, 0, 0, 1, -17.39, -14.78)"><path class="e" d="M786.514,2627.177a4.146,4.146,0,0,1-4.134-4.145v-4.881H771.216a6.8,6.8,0,0,0-6.8,6.795v18.967a6.8,6.8,0,0,0,6.8,6.8h5.074a3.9,3.9,0,0,0,2.536-.94l12.351-10.574a3.873,3.873,0,0,0,1.367-2.966v-9.061Zm-3.092,13.591H773.54a1.239,1.239,0,1,1,0-2.478h9.881a1.239,1.239,0,1,1,0,2.478Zm0-7.821H773.54a1.239,1.239,0,1,1,0-2.478h9.881a1.239,1.239,0,1,1,0,2.478Z" transform="translate(-747.03 -2603.36)"/></g></g><g data-type="innerShadowGroup"><g class="h" transform="matrix(1, 0, 0, 1, -17.39, -14.78)"><path class="f" d="M792.687,2639.547l-.894-1.051a1.326,1.326,0,0,0-1.867-.147l-8.649,7.382a1.361,1.361,0,0,0-.329.421l-1.018,2.067a.907.907,0,0,0,.987,1.291l2.421-.471a1.31,1.31,0,0,0,.6-.293l8.591-7.335a1.318,1.318,0,0,0,.151-1.863Z" transform="translate(-744.92 -2600.64)"/></g><g class="g" transform="matrix(1, 0, 0, 1, -17.39, -14.78)"><path class="e" d="M792.687,2639.547l-.894-1.051a1.326,1.326,0,0,0-1.867-.147l-8.649,7.382a1.361,1.361,0,0,0-.329.421l-1.018,2.067a.907.907,0,0,0,.987,1.291l2.421-.471a1.31,1.31,0,0,0,.6-.293l8.591-7.335a1.318,1.318,0,0,0,.151-1.863Z" transform="translate(-744.92 -2600.64)"/></g></g></g></g></g></svg>