<svg xmlns="http://www.w3.org/2000/svg" xmlns:xlink="http://www.w3.org/1999/xlink" width="64" height="64" viewBox="0 0 64 64"><defs><style>.a{fill:none;stroke:#707070;}.b{clip-path:url(#a);}.c{fill:url(#b);}.d{fill:url(#c);}.e{fill:#fff;}.f{fill:url(#i);}.g{filter:url(#l);}.h{filter:url(#j);}.i{filter:url(#f);}.j{filter:url(#d);}</style><clipPath id="a"><rect class="a" width="64" height="64" transform="translate(0.063)"/></clipPath><radialGradient id="b" cx="0.5" cy="0.5" r="0.564" gradientTransform="matrix(0.997, 0.081, -0.081, 0.997, 0.042, -0.039)" gradientUnits="objectBoundingBox"><stop offset="0" stop-color="#1a203a"/><stop offset="1" stop-color="#35447a"/></radialGradient><linearGradient id="c" x1="0.964" y1="1" x2="0.226" y2="0.055" gradientUnits="objectBoundingBox"><stop offset="0" stop-color="#f5bd74"/><stop offset="1" stop-color="#efd0a1"/></linearGradient><filter id="d" x="9.853" y="10.779" width="43.832" height="39.06" filterUnits="userSpaceOnUse"><feOffset dy="2" input="SourceAlpha"/><feGaussianBlur stdDeviation="2" result="e"/><feFlood flood-color="#20234e" flood-opacity="0.349"/><feComposite operator="in" in2="e"/><feComposite in="SourceGraphic"/></filter><filter id="f" x="9.853" y="10.779" width="43.832" height="39.06" filterUnits="userSpaceOnUse"><feOffset dx="0.4" dy="0.4" input="SourceAlpha"/><feGaussianBlur stdDeviation="0.05" result="g"/><feFlood flood-color="#fff" flood-opacity="0.349" result="h"/><feComposite operator="out" in="SourceGraphic" in2="g"/><feComposite operator="in" in="h"/><feComposite operator="in" in2="SourceGraphic"/></filter><linearGradient id="i" x1="0.686" y1="0.86" x2="0.087" gradientUnits="objectBoundingBox"><stop offset="0" stop-color="#43498d"/><stop offset="1" stop-color="#8890d1"/></linearGradient><filter id="j" x="21" y="40.966" width="21.527" height="14.418" filterUnits="userSpaceOnUse"><feOffset dy="2" input="SourceAlpha"/><feGaussianBlur stdDeviation="1.5" result="k"/><feFlood flood-color="#20234e" flood-opacity="0.302"/><feComposite operator="in" in2="k"/><feComposite in="SourceGraphic"/></filter><filter id="l" x="21" y="40.966" width="21.527" height="14.418" filterUnits="userSpaceOnUse"><feOffset dx="0.4" dy="0.4" input="SourceAlpha"/><feGaussianBlur stdDeviation="0.05" result="m"/><feFlood flood-color="#fff" flood-opacity="0.161" result="n"/><feComposite operator="out" in="SourceGraphic" in2="m"/><feComposite operator="in" in="n"/><feComposite operator="in" in2="SourceGraphic"/></filter></defs><g class="b" transform="translate(-0.063)"><g transform="translate(1.137 1.137)"><ellipse class="c" cx="30.5" cy="31" rx="30.5" ry="31" transform="translate(-0.074 -0.137)"/><g transform="translate(14.779 13.642)"><g data-type="innerShadowGroup"><g class="j" transform="matrix(1, 0, 0, 1, -15.85, -14.78)"><path class="d" d="M745.314,2642.667h-1.57v-8.7a1.175,1.175,0,0,0-.014-.181h.014a13.1,13.1,0,0,0-11.819-13.046v-1.329a1.266,1.266,0,1,0-2.532,0v1.329a13.1,13.1,0,0,0-11.819,13.046h.014a1.331,1.331,0,0,0-.014.181v8.7h-1.56a1.269,1.269,0,0,0,0,2.537h29.3a1.269,1.269,0,0,0,0-2.537Z" transform="translate(-698.9 -2603.37)"/></g><g class="i" transform="matrix(1, 0, 0, 1, -15.85, -14.78)"><path class="e" d="M745.314,2642.667h-1.57v-8.7a1.175,1.175,0,0,0-.014-.181h.014a13.1,13.1,0,0,0-11.819-13.046v-1.329a1.266,1.266,0,1,0-2.532,0v1.329a13.1,13.1,0,0,0-11.819,13.046h.014a1.331,1.331,0,0,0-.014.181v8.7h-1.56a1.269,1.269,0,0,0,0,2.537h29.3a1.269,1.269,0,0,0,0-2.537Z" transform="translate(-698.9 -2603.37)"/></g></g><g data-type="innerShadowGroup"><g class="h" transform="matrix(1, 0, 0, 1, -15.85, -14.78)"><path class="f" d="M729.5,2648.8a6.334,6.334,0,0,0,6.263-5.418H723.235A6.334,6.334,0,0,0,729.5,2648.8Z" transform="translate(-697.74 -2599.91)"/></g><g class="g" transform="matrix(1, 0, 0, 1, -15.85, -14.78)"><path class="e" d="M729.5,2648.8a6.334,6.334,0,0,0,6.263-5.418H723.235A6.334,6.334,0,0,0,729.5,2648.8Z" transform="translate(-697.74 -2599.91)"/></g></g></g></g></g></svg>