<svg xmlns="http://www.w3.org/2000/svg" xmlns:xlink="http://www.w3.org/1999/xlink" width="64" height="64" viewBox="0 0 64 64"><defs><style>.a{fill:none;stroke:#707070;}.b{clip-path:url(#a);}.c{fill:url(#b);}.d{fill:url(#c);}.e{fill:#fff;}.f{filter:url(#f);}.g{filter:url(#d);}</style><clipPath id="a"><rect class="a" width="64" height="64" transform="translate(-0.4)"/></clipPath><radialGradient id="b" cx="0.5" cy="0.5" r="0.564" gradientTransform="matrix(0.997, 0.081, -0.081, 0.997, 0.042, -0.039)" gradientUnits="objectBoundingBox"><stop offset="0" stop-color="#1a203a"/><stop offset="1" stop-color="#35447a"/></radialGradient><linearGradient id="c" x1="0.949" y1="1" x2="0.058" y2="0.04" gradientUnits="objectBoundingBox"><stop offset="0" stop-color="#f5bd74"/><stop offset="1" stop-color="#efd0a1"/></linearGradient><filter id="d" x="9.179" y="13.052" width="46.105" height="41.558" filterUnits="userSpaceOnUse"><feOffset dy="2" input="SourceAlpha"/><feGaussianBlur stdDeviation="2" result="e"/><feFlood flood-color="#20234e"/><feComposite operator="in" in2="e"/><feComposite in="SourceGraphic"/></filter><filter id="f" x="9.179" y="13.052" width="46.105" height="41.558" filterUnits="userSpaceOnUse"><feOffset dx="0.4" dy="0.4" input="SourceAlpha"/><feGaussianBlur stdDeviation="0.05" result="g"/><feFlood flood-color="#fff" flood-opacity="0.349" result="h"/><feComposite operator="out" in="SourceGraphic" in2="g"/><feComposite operator="in" in="h"/><feComposite operator="in" in2="SourceGraphic"/></filter></defs><g class="b" transform="translate(0.4)"><g transform="translate(1.137 1.137)"><ellipse class="c" cx="30.5" cy="31" rx="30.5" ry="31" transform="translate(0.463 -0.137)"/><g transform="translate(13.642 15.915)"><g data-type="innerShadowGroup"><g class="g" transform="matrix(1, 0, 0, 1, -15.18, -17.05)"><path class="d" d="M685.176,2620.144a4.667,4.667,0,0,1,4.69,4.645v5.912a1.273,1.273,0,0,1-1.279,1.267,2.956,2.956,0,1,0,0,5.912,1.273,1.273,0,0,1,1.279,1.266v5.912a4.667,4.667,0,0,1-4.69,4.645H660.449a4.667,4.667,0,0,1-4.689-4.645v-5.912a1.273,1.273,0,0,1,1.279-1.266,2.956,2.956,0,1,0,0-5.912,1.273,1.273,0,0,1-1.279-1.267v-5.912a4.667,4.667,0,0,1,4.689-4.645Zm-15.7,7.574a1.286,1.286,0,0,0-1.747-.1l-.061.052a1.257,1.257,0,0,0-.1,1.731l2.869,3.412h-1.887l-.075,0a1.271,1.271,0,0,0-1.2,1.264l0,.075a1.274,1.274,0,0,0,1.277,1.193h3.2v1.688h-3.2l-.075,0a1.273,1.273,0,0,0-1.2,1.266l0,.074a1.274,1.274,0,0,0,1.277,1.193h3.2v1.689l0,.074a1.274,1.274,0,0,0,1.277,1.192l.075,0a1.271,1.271,0,0,0,1.2-1.264v-1.689h2.772l.075,0a1.272,1.272,0,0,0,1.2-1.264l0-.075a1.274,1.274,0,0,0-1.277-1.192H674.3v-1.688h2.772l.075,0a1.274,1.274,0,0,0,1.2-1.266l0-.074a1.274,1.274,0,0,0-1.277-1.192h-1.888l2.871-3.412.05-.063a1.257,1.257,0,0,0-.241-1.75,1.288,1.288,0,0,0-1.775.192l-3.28,3.9-3.281-3.9Zm0,0" transform="translate(-640.58 -2603.09)"/></g><g class="f" transform="matrix(1, 0, 0, 1, -15.18, -17.05)"><path class="e" d="M685.176,2620.144a4.667,4.667,0,0,1,4.69,4.645v5.912a1.273,1.273,0,0,1-1.279,1.267,2.956,2.956,0,1,0,0,5.912,1.273,1.273,0,0,1,1.279,1.266v5.912a4.667,4.667,0,0,1-4.69,4.645H660.449a4.667,4.667,0,0,1-4.689-4.645v-5.912a1.273,1.273,0,0,1,1.279-1.266,2.956,2.956,0,1,0,0-5.912,1.273,1.273,0,0,1-1.279-1.267v-5.912a4.667,4.667,0,0,1,4.689-4.645Zm-15.7,7.574a1.286,1.286,0,0,0-1.747-.1l-.061.052a1.257,1.257,0,0,0-.1,1.731l2.869,3.412h-1.887l-.075,0a1.271,1.271,0,0,0-1.2,1.264l0,.075a1.274,1.274,0,0,0,1.277,1.193h3.2v1.688h-3.2l-.075,0a1.273,1.273,0,0,0-1.2,1.266l0,.074a1.274,1.274,0,0,0,1.277,1.193h3.2v1.689l0,.074a1.274,1.274,0,0,0,1.277,1.192l.075,0a1.271,1.271,0,0,0,1.2-1.264v-1.689h2.772l.075,0a1.272,1.272,0,0,0,1.2-1.264l0-.075a1.274,1.274,0,0,0-1.277-1.192H674.3v-1.688h2.772l.075,0a1.274,1.274,0,0,0,1.2-1.266l0-.074a1.274,1.274,0,0,0-1.277-1.192h-1.888l2.871-3.412.05-.063a1.257,1.257,0,0,0-.241-1.75,1.288,1.288,0,0,0-1.775.192l-3.28,3.9-3.281-3.9Zm0,0" transform="translate(-640.58 -2603.09)"/></g></g></g></g></g></svg>